M48
; DRILL file {KiCad 9.0.0} date 2025-03-07T23:58:45+0100
; FORMAT={-:-/ absolute / metric / decimal}
; #@! TF.CreationDate,2025-03-07T23:58:45+01:00
; #@! TF.GenerationSoftware,Kicad,Pcbnew,9.0.0
; #@! TF.FileFunction,Plated,1,2,PTH
FMAT,2
METRIC
; #@! TA.AperFunction,Plated,PTH,ViaDrill
T1C0.300
; #@! TA.AperFunction,Plated,PTH,ComponentDrill
T2C0.800
; #@! TA.AperFunction,Plated,PTH,ComponentDrill
T3C0.950
; #@! TA.AperFunction,Plated,PTH,ComponentDrill
T4C1.000
; #@! TA.AperFunction,Plated,PTH,ComponentDrill
T5C1.100
; #@! TA.AperFunction,Plated,PTH,ComponentDrill
T6C1.200
%
G90
G05
T1
X113.03Y-50.165
X124.69Y-49.598
T2
X91.44Y-58.745
X91.44Y-62.145
X99.06Y-58.745
X99.06Y-62.145
X102.87Y-58.745
X102.87Y-62.145
X110.49Y-58.745
X110.49Y-62.145
X114.3Y-58.725
X114.3Y-62.103
X121.92Y-58.725
X121.92Y-62.103
X125.73Y-58.725
X125.73Y-62.078
X133.35Y-58.725
X133.35Y-62.078
T3
X92.79Y-41.91
X95.29Y-41.91
X97.79Y-41.91
X100.29Y-41.91
X102.79Y-41.91
X105.29Y-41.91
X107.79Y-41.91
X110.29Y-41.91
T4
X115.57Y-40.64
X118.11Y-40.64
X120.65Y-40.64
X123.19Y-40.64
X127.0Y-40.64
X129.54Y-40.64
X133.35Y-40.64
X135.89Y-40.64
X138.43Y-40.64
X140.97Y-40.64
X140.97Y-45.72
X140.97Y-48.26
X140.97Y-52.07
X140.97Y-54.61
X140.97Y-58.42
X140.97Y-60.96
X140.97Y-64.77
X140.97Y-67.31
T5
X91.44Y-48.26
X92.71Y-54.61
X95.25Y-54.61
X97.79Y-54.61
X101.6Y-48.26
X104.14Y-54.61
X105.41Y-48.26
X106.68Y-54.61
X109.22Y-54.61
X115.57Y-48.26
X115.57Y-54.61
X117.035Y-69.85
X117.035Y-72.39
X117.035Y-74.93
X118.11Y-54.61
X119.38Y-48.26
X120.65Y-54.61
X127.0Y-54.61
X128.465Y-69.85
X128.465Y-72.39
X128.465Y-74.93
X129.54Y-48.26
X129.54Y-54.61
X132.08Y-54.61
X137.16Y-48.26
X137.16Y-58.42
T6
X92.71Y-72.7
X92.71Y-76.2
X92.71Y-79.7
X141.605Y-72.7
X141.605Y-76.2
X141.605Y-79.7
T2
X102.24Y-68.58G85X104.84Y-68.58
G05
X102.44Y-74.38G85X104.64Y-74.38
G05
X108.34Y-72.68G85X108.34Y-70.48
G05
M30
