G04 #@! TF.GenerationSoftware,KiCad,Pcbnew,9.0.0*
G04 #@! TF.CreationDate,2025-03-07T23:57:34+01:00*
G04 #@! TF.ProjectId,pcb,7063622e-6b69-4636-9164-5f7063625858,rev?*
G04 #@! TF.SameCoordinates,Original*
G04 #@! TF.FileFunction,Copper,L2,Bot*
G04 #@! TF.FilePolarity,Positive*
%FSLAX46Y46*%
G04 Gerber Fmt 4.6, Leading zero omitted, Abs format (unit mm)*
G04 Created by KiCad (PCBNEW 9.0.0) date 2025-03-07 23:57:34*
%MOMM*%
%LPD*%
G01*
G04 APERTURE LIST*
G04 Aperture macros list*
%AMRoundRect*
0 Rectangle with rounded corners*
0 $1 Rounding radius*
0 $2 $3 $4 $5 $6 $7 $8 $9 X,Y pos of 4 corners*
0 Add a 4 corners polygon primitive as box body*
4,1,4,$2,$3,$4,$5,$6,$7,$8,$9,$2,$3,0*
0 Add four circle primitives for the rounded corners*
1,1,$1+$1,$2,$3*
1,1,$1+$1,$4,$5*
1,1,$1+$1,$6,$7*
1,1,$1+$1,$8,$9*
0 Add four rect primitives between the rounded corners*
20,1,$1+$1,$2,$3,$4,$5,0*
20,1,$1+$1,$4,$5,$6,$7,0*
20,1,$1+$1,$6,$7,$8,$9,0*
20,1,$1+$1,$8,$9,$2,$3,0*%
G04 Aperture macros list end*
G04 #@! TA.AperFunction,ComponentPad*
%ADD10R,2.200000X2.200000*%
G04 #@! TD*
G04 #@! TA.AperFunction,ComponentPad*
%ADD11O,2.200000X2.200000*%
G04 #@! TD*
G04 #@! TA.AperFunction,ComponentPad*
%ADD12R,1.700000X1.700000*%
G04 #@! TD*
G04 #@! TA.AperFunction,ComponentPad*
%ADD13O,1.700000X1.700000*%
G04 #@! TD*
G04 #@! TA.AperFunction,ComponentPad*
%ADD14RoundRect,0.250000X-0.600000X-0.725000X0.600000X-0.725000X0.600000X0.725000X-0.600000X0.725000X0*%
G04 #@! TD*
G04 #@! TA.AperFunction,ComponentPad*
%ADD15O,1.700000X1.950000*%
G04 #@! TD*
G04 #@! TA.AperFunction,ComponentPad*
%ADD16R,2.000000X1.905000*%
G04 #@! TD*
G04 #@! TA.AperFunction,ComponentPad*
%ADD17O,2.000000X1.905000*%
G04 #@! TD*
G04 #@! TA.AperFunction,ComponentPad*
%ADD18O,1.905000X2.000000*%
G04 #@! TD*
G04 #@! TA.AperFunction,ComponentPad*
%ADD19R,1.905000X2.000000*%
G04 #@! TD*
G04 #@! TA.AperFunction,ComponentPad*
%ADD20C,1.600000*%
G04 #@! TD*
G04 #@! TA.AperFunction,ComponentPad*
%ADD21O,1.600000X1.600000*%
G04 #@! TD*
G04 #@! TA.AperFunction,ComponentPad*
%ADD22R,4.400000X1.800000*%
G04 #@! TD*
G04 #@! TA.AperFunction,ComponentPad*
%ADD23O,4.000000X1.800000*%
G04 #@! TD*
G04 #@! TA.AperFunction,ComponentPad*
%ADD24O,1.800000X4.000000*%
G04 #@! TD*
G04 #@! TA.AperFunction,ComponentPad*
%ADD25RoundRect,0.250001X-0.949999X0.949999X-0.949999X-0.949999X0.949999X-0.949999X0.949999X0.949999X0*%
G04 #@! TD*
G04 #@! TA.AperFunction,ComponentPad*
%ADD26C,2.400000*%
G04 #@! TD*
G04 #@! TA.AperFunction,ComponentPad*
%ADD27RoundRect,0.250001X0.949999X-0.949999X0.949999X0.949999X-0.949999X0.949999X-0.949999X-0.949999X0*%
G04 #@! TD*
G04 #@! TA.AperFunction,ViaPad*
%ADD28C,0.600000*%
G04 #@! TD*
G04 #@! TA.AperFunction,Conductor*
%ADD29C,0.406400*%
G04 #@! TD*
G04 #@! TA.AperFunction,Conductor*
%ADD30C,0.203200*%
G04 #@! TD*
G04 APERTURE END LIST*
D10*
X91440000Y-48260000D03*
D11*
X101600000Y-48260000D03*
D10*
X105410000Y-48260000D03*
D11*
X115570000Y-48260000D03*
D12*
X140970000Y-64770000D03*
D13*
X140970000Y-67310000D03*
D14*
X92790000Y-41910000D03*
D15*
X95290000Y-41910000D03*
X97790000Y-41910000D03*
X100290000Y-41910000D03*
X102790000Y-41910000D03*
X105290000Y-41910000D03*
X107790000Y-41910000D03*
X110290000Y-41910000D03*
D12*
X140970000Y-48260000D03*
D13*
X140970000Y-45720000D03*
D16*
X117035000Y-69850000D03*
D17*
X117035000Y-72390000D03*
X117035000Y-74930000D03*
D18*
X95250000Y-54610000D03*
D19*
X92710000Y-54610000D03*
D18*
X97790000Y-54610000D03*
D20*
X114300000Y-62103000D03*
D21*
X121920000Y-62103000D03*
D20*
X91440000Y-58745000D03*
D21*
X99060000Y-58745000D03*
D12*
X140970000Y-52070000D03*
D13*
X140970000Y-54610000D03*
D20*
X91440000Y-62145000D03*
D21*
X99060000Y-62145000D03*
D17*
X128465000Y-74930000D03*
X128465000Y-72390000D03*
D16*
X128465000Y-69850000D03*
D10*
X119380000Y-48260000D03*
D11*
X129540000Y-48260000D03*
D18*
X118110000Y-54610000D03*
D19*
X115570000Y-54610000D03*
D18*
X120650000Y-54610000D03*
X106680000Y-54610000D03*
D19*
X104140000Y-54610000D03*
D18*
X109220000Y-54610000D03*
D10*
X137160000Y-48260000D03*
D11*
X137160000Y-58420000D03*
D22*
X103540000Y-68580000D03*
D23*
X103540000Y-74380000D03*
D24*
X108340000Y-71580000D03*
D12*
X140970000Y-58420000D03*
D13*
X140970000Y-60960000D03*
D20*
X125730000Y-58724800D03*
D21*
X133350000Y-58724800D03*
D25*
X92710000Y-72700000D03*
D26*
X92710000Y-76200000D03*
X92710000Y-79700000D03*
D20*
X114300000Y-58724800D03*
D21*
X121920000Y-58724800D03*
D20*
X102870000Y-62145000D03*
D21*
X110490000Y-62145000D03*
D12*
X115570000Y-40640000D03*
D13*
X118110000Y-40640000D03*
X120650000Y-40640000D03*
X123190000Y-40640000D03*
D12*
X127000000Y-40640000D03*
D13*
X129540000Y-40640000D03*
D27*
X141605000Y-79700000D03*
D26*
X141605000Y-76200000D03*
X141605000Y-72700000D03*
D20*
X125730000Y-62077600D03*
D21*
X133350000Y-62077600D03*
D20*
X102870000Y-58745000D03*
D21*
X110490000Y-58745000D03*
D18*
X129540000Y-54610000D03*
D19*
X127000000Y-54610000D03*
D18*
X132080000Y-54610000D03*
D12*
X133350000Y-40640000D03*
D13*
X135890000Y-40640000D03*
X138430000Y-40640000D03*
X140970000Y-40640000D03*
D28*
X113030000Y-50165000D03*
X124689817Y-49598496D03*
D29*
X91440000Y-48260000D02*
X93353800Y-46346200D01*
X108428800Y-51278800D02*
X118901200Y-51278800D01*
X89826200Y-69816200D02*
X89826200Y-49873800D01*
X89826200Y-49873800D02*
X91440000Y-48260000D01*
X103496200Y-46346200D02*
X105410000Y-48260000D01*
X119380000Y-50800000D02*
X119380000Y-48260000D01*
X118901200Y-51278800D02*
X119380000Y-50800000D01*
X92710000Y-72700000D02*
X89826200Y-69816200D01*
X93353800Y-46346200D02*
X103496200Y-46346200D01*
X105410000Y-48260000D02*
X108428800Y-51278800D01*
D30*
X113030000Y-45720000D02*
X118110000Y-40640000D01*
X113030000Y-45720000D02*
X113030000Y-50165000D01*
X124689817Y-49598496D02*
X123127400Y-48036079D01*
X123127400Y-43117400D02*
X120650000Y-40640000D01*
X123127400Y-48036079D02*
X123127400Y-43117400D01*
X134557400Y-60870200D02*
X134557400Y-49653000D01*
X124752200Y-42202200D02*
X123190000Y-40640000D01*
X127106600Y-42202200D02*
X124752200Y-42202200D01*
X134557400Y-49653000D02*
X127106600Y-42202200D01*
X133350000Y-62077600D02*
X134557400Y-60870200D01*
G04 #@! TA.AperFunction,Conductor*
G36*
X144857539Y-38620185D02*
G01*
X144903294Y-38672989D01*
X144914500Y-38724500D01*
X144914500Y-81925500D01*
X144894815Y-81992539D01*
X144842011Y-82038294D01*
X144790500Y-82049500D01*
X89524500Y-82049500D01*
X89457461Y-82029815D01*
X89411706Y-81977011D01*
X89400500Y-81925500D01*
X89400500Y-70840042D01*
X89420185Y-70773003D01*
X89472989Y-70727248D01*
X89542147Y-70717304D01*
X89605703Y-70746329D01*
X89612181Y-70752361D01*
X90863581Y-72003761D01*
X90897066Y-72065084D01*
X90899900Y-72091442D01*
X90899900Y-73724796D01*
X90899901Y-73724801D01*
X90902747Y-73766793D01*
X90902747Y-73766795D01*
X90947898Y-73948352D01*
X91031019Y-74115949D01*
X91031021Y-74115952D01*
X91031022Y-74115953D01*
X91148231Y-74261769D01*
X91294047Y-74378978D01*
X91294048Y-74378978D01*
X91294050Y-74378980D01*
X91402287Y-74432661D01*
X91461649Y-74462102D01*
X91619658Y-74501396D01*
X91679964Y-74536678D01*
X91711623Y-74598964D01*
X91704582Y-74668478D01*
X91665218Y-74720106D01*
X91513956Y-74836175D01*
X91346175Y-75003956D01*
X91201730Y-75192198D01*
X91083088Y-75397692D01*
X91083084Y-75397701D01*
X90992285Y-75616909D01*
X90930870Y-75846112D01*
X90899900Y-76081359D01*
X90899900Y-76318640D01*
X90930870Y-76553887D01*
X90992285Y-76783090D01*
X91083084Y-77002298D01*
X91083088Y-77002307D01*
X91201730Y-77207801D01*
X91346175Y-77396043D01*
X91346183Y-77396052D01*
X91513948Y-77563817D01*
X91513956Y-77563824D01*
X91702198Y-77708269D01*
X91702201Y-77708270D01*
X91702204Y-77708273D01*
X91907695Y-77826913D01*
X91907700Y-77826915D01*
X91907706Y-77826918D01*
X92072130Y-77895024D01*
X92126534Y-77938865D01*
X92148599Y-78005159D01*
X92131320Y-78072858D01*
X92080183Y-78120469D01*
X92072132Y-78124145D01*
X91956505Y-78172041D01*
X91956479Y-78172054D01*
X91763519Y-78283457D01*
X91763506Y-78283467D01*
X91700796Y-78331584D01*
X91700796Y-78331585D01*
X92503402Y-79134191D01*
X92478409Y-79140889D01*
X92341592Y-79219881D01*
X92229881Y-79331592D01*
X92150889Y-79468409D01*
X92144191Y-79493402D01*
X91341585Y-78690796D01*
X91341584Y-78690796D01*
X91293467Y-78753506D01*
X91293457Y-78753519D01*
X91182054Y-78946479D01*
X91182045Y-78946497D01*
X91096763Y-79152381D01*
X91039088Y-79367632D01*
X91039085Y-79367645D01*
X91010000Y-79588575D01*
X91010000Y-79811424D01*
X91039085Y-80032354D01*
X91039088Y-80032367D01*
X91096763Y-80247618D01*
X91182045Y-80453502D01*
X91182054Y-80453520D01*
X91293462Y-80646488D01*
X91341585Y-80709202D01*
X92144191Y-79906596D01*
X92150889Y-79931591D01*
X92229881Y-80068408D01*
X92341592Y-80180119D01*
X92478409Y-80259111D01*
X92503401Y-80265807D01*
X91700796Y-81068412D01*
X91700796Y-81068414D01*
X91763504Y-81116533D01*
X91763508Y-81116535D01*
X91956479Y-81227945D01*
X91956497Y-81227954D01*
X92162381Y-81313236D01*
X92377632Y-81370911D01*
X92377645Y-81370914D01*
X92598575Y-81400000D01*
X92821425Y-81400000D01*
X93042354Y-81370914D01*
X93042367Y-81370911D01*
X93257618Y-81313236D01*
X93463502Y-81227954D01*
X93463514Y-81227949D01*
X93656492Y-81116533D01*
X93719202Y-81068413D01*
X93719202Y-81068412D01*
X92916598Y-80265807D01*
X92941591Y-80259111D01*
X93078408Y-80180119D01*
X93190119Y-80068408D01*
X93269111Y-79931591D01*
X93275807Y-79906597D01*
X94078412Y-80709202D01*
X94078413Y-80709202D01*
X94126533Y-80646492D01*
X94237949Y-80453514D01*
X94237954Y-80453502D01*
X94323236Y-80247618D01*
X94380911Y-80032367D01*
X94380914Y-80032354D01*
X94400122Y-79886453D01*
X94400122Y-79886452D01*
X94410000Y-79811423D01*
X94410000Y-79588575D01*
X94380914Y-79367645D01*
X94380911Y-79367632D01*
X94323236Y-79152381D01*
X94237954Y-78946497D01*
X94237945Y-78946479D01*
X94126535Y-78753508D01*
X94126533Y-78753504D01*
X94078414Y-78690796D01*
X94078412Y-78690796D01*
X93275807Y-79493401D01*
X93269111Y-79468409D01*
X93190119Y-79331592D01*
X93078408Y-79219881D01*
X92941591Y-79140889D01*
X92916597Y-79134191D01*
X93719202Y-78331585D01*
X93656488Y-78283462D01*
X93463520Y-78172054D01*
X93463494Y-78172041D01*
X93347867Y-78124145D01*
X93293464Y-78080304D01*
X93271400Y-78014009D01*
X93288680Y-77946310D01*
X93339818Y-77898700D01*
X93347862Y-77895026D01*
X93512305Y-77826913D01*
X93717796Y-77708273D01*
X93906043Y-77563825D01*
X93906047Y-77563820D01*
X93906052Y-77563817D01*
X94073817Y-77396052D01*
X94073820Y-77396047D01*
X94073825Y-77396043D01*
X94218273Y-77207796D01*
X94336913Y-77002305D01*
X94427716Y-76783086D01*
X94489129Y-76553891D01*
X94520100Y-76318640D01*
X94520100Y-76081360D01*
X94489129Y-75846109D01*
X94427716Y-75616914D01*
X94336913Y-75397695D01*
X94218273Y-75192204D01*
X94218270Y-75192201D01*
X94218269Y-75192198D01*
X94073824Y-75003956D01*
X94073817Y-75003948D01*
X93906052Y-74836183D01*
X93906043Y-74836175D01*
X93754781Y-74720106D01*
X93745756Y-74707746D01*
X93733239Y-74698941D01*
X93725571Y-74680103D01*
X93713578Y-74663678D01*
X93712668Y-74648400D01*
X93706899Y-74634227D01*
X93710633Y-74614235D01*
X93709424Y-74593932D01*
X93716918Y-74580587D01*
X93719728Y-74565545D01*
X93733677Y-74550745D01*
X93743637Y-74533012D01*
X93757876Y-74525072D01*
X93767652Y-74514702D01*
X93800337Y-74501397D01*
X93958351Y-74462102D01*
X94125953Y-74378978D01*
X94271769Y-74261769D01*
X94380902Y-74126000D01*
X101062779Y-74126000D01*
X102128314Y-74126000D01*
X102119920Y-74134394D01*
X102067259Y-74225606D01*
X102040000Y-74327339D01*
X102040000Y-74432661D01*
X102067259Y-74534394D01*
X102119920Y-74625606D01*
X102128314Y-74634000D01*
X101062779Y-74634000D01*
X101074473Y-74707835D01*
X101142567Y-74917410D01*
X101242613Y-75113760D01*
X101372142Y-75292041D01*
X101527958Y-75447857D01*
X101706239Y-75577386D01*
X101902589Y-75677432D01*
X102112164Y-75745526D01*
X102329819Y-75780000D01*
X103286000Y-75780000D01*
X103286000Y-74780000D01*
X103794000Y-74780000D01*
X103794000Y-75780000D01*
X104750181Y-75780000D01*
X104967835Y-75745526D01*
X105177410Y-75677432D01*
X105373760Y-75577386D01*
X105552041Y-75447857D01*
X105707857Y-75292041D01*
X105837386Y-75113760D01*
X105937432Y-74917410D01*
X105987333Y-74763831D01*
X106005526Y-74707835D01*
X106017221Y-74634000D01*
X104951686Y-74634000D01*
X104960080Y-74625606D01*
X105012741Y-74534394D01*
X105040000Y-74432661D01*
X105040000Y-74327339D01*
X105012741Y-74225606D01*
X104960080Y-74134394D01*
X104951686Y-74126000D01*
X106017221Y-74126000D01*
X106005526Y-74052164D01*
X105937432Y-73842589D01*
X105837386Y-73646239D01*
X105707857Y-73467958D01*
X105552041Y-73312142D01*
X105373760Y-73182613D01*
X105177410Y-73082567D01*
X104967835Y-73014473D01*
X104750181Y-72980000D01*
X103794000Y-72980000D01*
X103794000Y-73980000D01*
X103286000Y-73980000D01*
X103286000Y-72980000D01*
X102329819Y-72980000D01*
X102112164Y-73014473D01*
X101902589Y-73082567D01*
X101706239Y-73182613D01*
X101527958Y-73312142D01*
X101372142Y-73467958D01*
X101242613Y-73646239D01*
X101142567Y-73842589D01*
X101074473Y-74052164D01*
X101062779Y-74126000D01*
X94380902Y-74126000D01*
X94388978Y-74115953D01*
X94472102Y-73948351D01*
X94517252Y-73766797D01*
X94520100Y-73724797D01*
X94520099Y-71675204D01*
X94517252Y-71633203D01*
X94472102Y-71451649D01*
X94430056Y-71366872D01*
X94388980Y-71284050D01*
X94388978Y-71284047D01*
X94271769Y-71138231D01*
X94125953Y-71021022D01*
X94125952Y-71021021D01*
X94125949Y-71021019D01*
X93958352Y-70937898D01*
X93776800Y-70892748D01*
X93751597Y-70891039D01*
X93734797Y-70889900D01*
X93734795Y-70889900D01*
X92101442Y-70889900D01*
X92034403Y-70870215D01*
X92013761Y-70853581D01*
X91529998Y-70369818D01*
X106940000Y-70369818D01*
X106940000Y-71326000D01*
X107940000Y-71326000D01*
X107940000Y-71834000D01*
X106940000Y-71834000D01*
X106940000Y-72790181D01*
X106974473Y-73007835D01*
X107042567Y-73217410D01*
X107142613Y-73413760D01*
X107272142Y-73592041D01*
X107427958Y-73747857D01*
X107606239Y-73877386D01*
X107802589Y-73977432D01*
X108012164Y-74045526D01*
X108086000Y-74057221D01*
X108086000Y-72991686D01*
X108094394Y-73000080D01*
X108185606Y-73052741D01*
X108287339Y-73080000D01*
X108392661Y-73080000D01*
X108494394Y-73052741D01*
X108585606Y-73000080D01*
X108594000Y-72991686D01*
X108594000Y-74057220D01*
X108667835Y-74045526D01*
X108877410Y-73977432D01*
X109073760Y-73877386D01*
X109252041Y-73747857D01*
X109407857Y-73592041D01*
X109537386Y-73413760D01*
X109637432Y-73217410D01*
X109705526Y-73007835D01*
X109740000Y-72790181D01*
X109740000Y-71834000D01*
X108740000Y-71834000D01*
X108740000Y-71326000D01*
X109740000Y-71326000D01*
X109740000Y-70369818D01*
X109705526Y-70152164D01*
X109637432Y-69942589D01*
X109537386Y-69746239D01*
X109407857Y-69567958D01*
X109252041Y-69412142D01*
X109073760Y-69282613D01*
X108877407Y-69182566D01*
X108877409Y-69182566D01*
X108667832Y-69114472D01*
X108594000Y-69102778D01*
X108594000Y-70168314D01*
X108585606Y-70159920D01*
X108494394Y-70107259D01*
X108392661Y-70080000D01*
X108287339Y-70080000D01*
X108185606Y-70107259D01*
X108094394Y-70159920D01*
X108086000Y-70168314D01*
X108086000Y-69102778D01*
X108085999Y-69102778D01*
X108012167Y-69114472D01*
X107802591Y-69182566D01*
X107606239Y-69282613D01*
X107427958Y-69412142D01*
X107272142Y-69567958D01*
X107142613Y-69746239D01*
X107042567Y-69942589D01*
X106974473Y-70152164D01*
X106940000Y-70369818D01*
X91529998Y-70369818D01*
X90675819Y-69515639D01*
X90642334Y-69454316D01*
X90639500Y-69427958D01*
X90639500Y-67618381D01*
X100729900Y-67618381D01*
X100729900Y-69541601D01*
X100729901Y-69541623D01*
X100732622Y-69576200D01*
X100775626Y-69724221D01*
X100775627Y-69724224D01*
X100775628Y-69724226D01*
X100810729Y-69783579D01*
X100854093Y-69856904D01*
X100854099Y-69856912D01*
X100963087Y-69965900D01*
X100963091Y-69965903D01*
X100963093Y-69965905D01*
X101095774Y-70044372D01*
X101134810Y-70055713D01*
X101243796Y-70087377D01*
X101243799Y-70087377D01*
X101243801Y-70087378D01*
X101278387Y-70090100D01*
X105801612Y-70090099D01*
X105836199Y-70087378D01*
X105984226Y-70044372D01*
X106116907Y-69965905D01*
X106225905Y-69856907D01*
X106304372Y-69724226D01*
X106347378Y-69576199D01*
X106350100Y-69541613D01*
X106350099Y-68835881D01*
X115424900Y-68835881D01*
X115424900Y-70864101D01*
X115424901Y-70864123D01*
X115427622Y-70898700D01*
X115470626Y-71046721D01*
X115470627Y-71046724D01*
X115549093Y-71179404D01*
X115549099Y-71179412D01*
X115658087Y-71288400D01*
X115658096Y-71288407D01*
X115774676Y-71357352D01*
X115822359Y-71408421D01*
X115834863Y-71477163D01*
X115811874Y-71536969D01*
X115745210Y-71628724D01*
X115641417Y-71832431D01*
X115570765Y-72049875D01*
X115557124Y-72135999D01*
X115557124Y-72136000D01*
X116546562Y-72136000D01*
X116522482Y-72177708D01*
X116485000Y-72317591D01*
X116485000Y-72462409D01*
X116522482Y-72602292D01*
X116546562Y-72644000D01*
X115557124Y-72644000D01*
X115570765Y-72730124D01*
X115641417Y-72947568D01*
X115745211Y-73151276D01*
X115879597Y-73336242D01*
X116044705Y-73501350D01*
X116043821Y-73502233D01*
X116078851Y-73555903D01*
X116079345Y-73625771D01*
X116041988Y-73684815D01*
X116033009Y-73691997D01*
X115969540Y-73738109D01*
X115969535Y-73738113D01*
X115795609Y-73912039D01*
X115651047Y-74111015D01*
X115539383Y-74330167D01*
X115463375Y-74564093D01*
X115424900Y-74807015D01*
X115424900Y-75052984D01*
X115462763Y-75292041D01*
X115463376Y-75295910D01*
X115496450Y-75397701D01*
X115539383Y-75529832D01*
X115651047Y-75748984D01*
X115795609Y-75947960D01*
X115969539Y-76121890D01*
X116155734Y-76257166D01*
X116168519Y-76266455D01*
X116387670Y-76378118D01*
X116621590Y-76454124D01*
X116712689Y-76468552D01*
X116864516Y-76492600D01*
X116864521Y-76492600D01*
X117205484Y-76492600D01*
X117340440Y-76471224D01*
X117448410Y-76454124D01*
X117682330Y-76378118D01*
X117901481Y-76266455D01*
X118013201Y-76185285D01*
X118100460Y-76121890D01*
X118100462Y-76121887D01*
X118100466Y-76121885D01*
X118274385Y-75947966D01*
X118274387Y-75947962D01*
X118274390Y-75947960D01*
X118348388Y-75846109D01*
X118418955Y-75748981D01*
X118530618Y-75529830D01*
X118606624Y-75295910D01*
X118623724Y-75187940D01*
X118645100Y-75052984D01*
X118645100Y-74807015D01*
X118617732Y-74634227D01*
X118606624Y-74564090D01*
X118530618Y-74330170D01*
X118418955Y-74111019D01*
X118343570Y-74007259D01*
X118274390Y-73912039D01*
X118100462Y-73738111D01*
X118036991Y-73691998D01*
X117994324Y-73636668D01*
X117988345Y-73567055D01*
X118020950Y-73505260D01*
X118027938Y-73498706D01*
X118190402Y-73336242D01*
X118324788Y-73151276D01*
X118428582Y-72947568D01*
X118499234Y-72730124D01*
X118512875Y-72644000D01*
X117523438Y-72644000D01*
X117547518Y-72602292D01*
X117585000Y-72462409D01*
X117585000Y-72317591D01*
X117547518Y-72177708D01*
X117523438Y-72136000D01*
X118512876Y-72136000D01*
X118512875Y-72135999D01*
X118499234Y-72049875D01*
X118428582Y-71832431D01*
X118324788Y-71628723D01*
X118258125Y-71536970D01*
X118234645Y-71471164D01*
X118250470Y-71403110D01*
X118295319Y-71357354D01*
X118411907Y-71288405D01*
X118520905Y-71179407D01*
X118599372Y-71046726D01*
X118642378Y-70898699D01*
X118645100Y-70864113D01*
X118645099Y-68835888D01*
X118645098Y-68835881D01*
X126854900Y-68835881D01*
X126854900Y-70864101D01*
X126854901Y-70864123D01*
X126857622Y-70898700D01*
X126900626Y-71046721D01*
X126900627Y-71046724D01*
X126979093Y-71179404D01*
X126979099Y-71179412D01*
X127088087Y-71288400D01*
X127088096Y-71288407D01*
X127204676Y-71357352D01*
X127252359Y-71408421D01*
X127264863Y-71477163D01*
X127241874Y-71536969D01*
X127175210Y-71628724D01*
X127071417Y-71832431D01*
X127000765Y-72049875D01*
X126987124Y-72135999D01*
X126987124Y-72136000D01*
X127976562Y-72136000D01*
X127952482Y-72177708D01*
X127915000Y-72317591D01*
X127915000Y-72462409D01*
X127952482Y-72602292D01*
X127976562Y-72644000D01*
X126987124Y-72644000D01*
X127000765Y-72730124D01*
X127071417Y-72947568D01*
X127175211Y-73151276D01*
X127309597Y-73336242D01*
X127474705Y-73501350D01*
X127473821Y-73502233D01*
X127508851Y-73555903D01*
X127509345Y-73625771D01*
X127471988Y-73684815D01*
X127463009Y-73691997D01*
X127399540Y-73738109D01*
X127399535Y-73738113D01*
X127225609Y-73912039D01*
X127081047Y-74111015D01*
X126969383Y-74330167D01*
X126893375Y-74564093D01*
X126854900Y-74807015D01*
X126854900Y-75052984D01*
X126892763Y-75292041D01*
X126893376Y-75295910D01*
X126926450Y-75397701D01*
X126969383Y-75529832D01*
X127081047Y-75748984D01*
X127225609Y-75947960D01*
X127399539Y-76121890D01*
X127585734Y-76257166D01*
X127598519Y-76266455D01*
X127817670Y-76378118D01*
X128051590Y-76454124D01*
X128142689Y-76468552D01*
X128294516Y-76492600D01*
X128294521Y-76492600D01*
X128635484Y-76492600D01*
X128770440Y-76471224D01*
X128878410Y-76454124D01*
X129112330Y-76378118D01*
X129331481Y-76266455D01*
X129443201Y-76185285D01*
X129530460Y-76121890D01*
X129530462Y-76121887D01*
X129530466Y-76121885D01*
X129704385Y-75947966D01*
X129704387Y-75947962D01*
X129704390Y-75947960D01*
X129778388Y-75846109D01*
X129848955Y-75748981D01*
X129960618Y-75529830D01*
X130036624Y-75295910D01*
X130053724Y-75187940D01*
X130075100Y-75052984D01*
X130075100Y-74807015D01*
X130047732Y-74634227D01*
X130036624Y-74564090D01*
X129960618Y-74330170D01*
X129848955Y-74111019D01*
X129773570Y-74007259D01*
X129704390Y-73912039D01*
X129530462Y-73738111D01*
X129466991Y-73691998D01*
X129424324Y-73636668D01*
X129418345Y-73567055D01*
X129450950Y-73505260D01*
X129457938Y-73498706D01*
X129620402Y-73336242D01*
X129754788Y-73151276D01*
X129858582Y-72947568D01*
X129929234Y-72730124D01*
X129942876Y-72644000D01*
X128953438Y-72644000D01*
X128977518Y-72602292D01*
X128983127Y-72581359D01*
X139794900Y-72581359D01*
X139794900Y-72818640D01*
X139825870Y-73053887D01*
X139887285Y-73283090D01*
X139976596Y-73498706D01*
X139978087Y-73502305D01*
X140087605Y-73691997D01*
X140096730Y-73707801D01*
X140241175Y-73896043D01*
X140241183Y-73896052D01*
X140408948Y-74063817D01*
X140408956Y-74063824D01*
X140597198Y-74208269D01*
X140597201Y-74208270D01*
X140597204Y-74208273D01*
X140802695Y-74326913D01*
X140802705Y-74326917D01*
X140802709Y-74326919D01*
X140823278Y-74335440D01*
X140877681Y-74379281D01*
X140899745Y-74445576D01*
X140882465Y-74513275D01*
X140831327Y-74560885D01*
X140823278Y-74564560D01*
X140802709Y-74573080D01*
X140802692Y-74573088D01*
X140597198Y-74691730D01*
X140408956Y-74836175D01*
X140241175Y-75003956D01*
X140096730Y-75192198D01*
X139978088Y-75397692D01*
X139978084Y-75397701D01*
X139887285Y-75616909D01*
X139825870Y-75846112D01*
X139794900Y-76081359D01*
X139794900Y-76318640D01*
X139825870Y-76553887D01*
X139887285Y-76783090D01*
X139978084Y-77002298D01*
X139978088Y-77002307D01*
X140096730Y-77207801D01*
X140241175Y-77396043D01*
X140241183Y-77396052D01*
X140408948Y-77563817D01*
X140408956Y-77563824D01*
X140597198Y-77708269D01*
X140597201Y-77708270D01*
X140597204Y-77708273D01*
X140701717Y-77768614D01*
X140749933Y-77819180D01*
X140763156Y-77887787D01*
X140737188Y-77952652D01*
X140680273Y-77993180D01*
X140639717Y-78000000D01*
X140605014Y-78000000D01*
X140502310Y-78010493D01*
X140502303Y-78010494D01*
X140335881Y-78065641D01*
X140335876Y-78065643D01*
X140186655Y-78157684D01*
X140062684Y-78281655D01*
X139970643Y-78430876D01*
X139970641Y-78430881D01*
X139915494Y-78597303D01*
X139915493Y-78597310D01*
X139905000Y-78700014D01*
X139905000Y-79446000D01*
X141058827Y-79446000D01*
X141045889Y-79468409D01*
X141005000Y-79621009D01*
X141005000Y-79778991D01*
X141045889Y-79931591D01*
X141058827Y-79954000D01*
X139905000Y-79954000D01*
X139905000Y-80699985D01*
X139915493Y-80802689D01*
X139915494Y-80802696D01*
X139970641Y-80969118D01*
X139970643Y-80969123D01*
X140062684Y-81118344D01*
X140186655Y-81242315D01*
X140335876Y-81334356D01*
X140335881Y-81334358D01*
X140502303Y-81389505D01*
X140502310Y-81389506D01*
X140605014Y-81399999D01*
X140605027Y-81400000D01*
X141351000Y-81400000D01*
X141351000Y-80246173D01*
X141373409Y-80259111D01*
X141526009Y-80300000D01*
X141683991Y-80300000D01*
X141836591Y-80259111D01*
X141859000Y-80246173D01*
X141859000Y-81400000D01*
X142604973Y-81400000D01*
X142604985Y-81399999D01*
X142707689Y-81389506D01*
X142707696Y-81389505D01*
X142874118Y-81334358D01*
X142874123Y-81334356D01*
X143023344Y-81242315D01*
X143147315Y-81118344D01*
X143239356Y-80969123D01*
X143239358Y-80969118D01*
X143294505Y-80802696D01*
X143294506Y-80802689D01*
X143304999Y-80699985D01*
X143305000Y-80699972D01*
X143305000Y-79954000D01*
X142151173Y-79954000D01*
X142164111Y-79931591D01*
X142205000Y-79778991D01*
X142205000Y-79621009D01*
X142164111Y-79468409D01*
X142151173Y-79446000D01*
X143305000Y-79446000D01*
X143305000Y-78700027D01*
X143304999Y-78700014D01*
X143294506Y-78597310D01*
X143294505Y-78597303D01*
X143239358Y-78430881D01*
X143239356Y-78430876D01*
X143147315Y-78281655D01*
X143023344Y-78157684D01*
X142874123Y-78065643D01*
X142874118Y-78065641D01*
X142707696Y-78010494D01*
X142707689Y-78010493D01*
X142604985Y-78000000D01*
X142570283Y-78000000D01*
X142503244Y-77980315D01*
X142457489Y-77927511D01*
X142447545Y-77858353D01*
X142476570Y-77794797D01*
X142508281Y-77768614D01*
X142612796Y-77708273D01*
X142801043Y-77563825D01*
X142801047Y-77563820D01*
X142801052Y-77563817D01*
X142968817Y-77396052D01*
X142968820Y-77396047D01*
X142968825Y-77396043D01*
X143113273Y-77207796D01*
X143231913Y-77002305D01*
X143322716Y-76783086D01*
X143384129Y-76553891D01*
X143415100Y-76318640D01*
X143415100Y-76081360D01*
X143384129Y-75846109D01*
X143322716Y-75616914D01*
X143231913Y-75397695D01*
X143113273Y-75192204D01*
X143113270Y-75192201D01*
X143113269Y-75192198D01*
X142968824Y-75003956D01*
X142968817Y-75003948D01*
X142801052Y-74836183D01*
X142801043Y-74836175D01*
X142612801Y-74691730D01*
X142592662Y-74680103D01*
X142478576Y-74614235D01*
X142407307Y-74573088D01*
X142407298Y-74573084D01*
X142386722Y-74564561D01*
X142332319Y-74520720D01*
X142310254Y-74454426D01*
X142327533Y-74386727D01*
X142378670Y-74339116D01*
X142386722Y-74335439D01*
X142391706Y-74333373D01*
X142407305Y-74326913D01*
X142612796Y-74208273D01*
X142801043Y-74063825D01*
X142801047Y-74063820D01*
X142801052Y-74063817D01*
X142968817Y-73896052D01*
X142968820Y-73896047D01*
X142968825Y-73896043D01*
X143113273Y-73707796D01*
X143231913Y-73502305D01*
X143322716Y-73283086D01*
X143384129Y-73053891D01*
X143415100Y-72818640D01*
X143415100Y-72581360D01*
X143384129Y-72346109D01*
X143322716Y-72116914D01*
X143231913Y-71897695D01*
X143113273Y-71692204D01*
X143113270Y-71692201D01*
X143113269Y-71692198D01*
X142968824Y-71503956D01*
X142968817Y-71503948D01*
X142801052Y-71336183D01*
X142801043Y-71336175D01*
X142612801Y-71191730D01*
X142407307Y-71073088D01*
X142407298Y-71073084D01*
X142188090Y-70982285D01*
X141958887Y-70920870D01*
X141723641Y-70889900D01*
X141723640Y-70889900D01*
X141486360Y-70889900D01*
X141486359Y-70889900D01*
X141251112Y-70920870D01*
X141021909Y-70982285D01*
X140802701Y-71073084D01*
X140802692Y-71073088D01*
X140597198Y-71191730D01*
X140408956Y-71336175D01*
X140241175Y-71503956D01*
X140096730Y-71692198D01*
X139978088Y-71897692D01*
X139978084Y-71897701D01*
X139887285Y-72116909D01*
X139825870Y-72346112D01*
X139794900Y-72581359D01*
X128983127Y-72581359D01*
X129015000Y-72462409D01*
X129015000Y-72317591D01*
X128977518Y-72177708D01*
X128953438Y-72136000D01*
X129942876Y-72136000D01*
X129942875Y-72135999D01*
X129929234Y-72049875D01*
X129858582Y-71832431D01*
X129754788Y-71628723D01*
X129688125Y-71536970D01*
X129664645Y-71471164D01*
X129680470Y-71403110D01*
X129725319Y-71357354D01*
X129841907Y-71288405D01*
X129950905Y-71179407D01*
X130029372Y-71046726D01*
X130072378Y-70898699D01*
X130075100Y-70864113D01*
X130075099Y-68835888D01*
X130072378Y-68801301D01*
X130029372Y-68653274D01*
X129950905Y-68520593D01*
X129950903Y-68520591D01*
X129950900Y-68520587D01*
X129841912Y-68411599D01*
X129841904Y-68411593D01*
X129709224Y-68333127D01*
X129709221Y-68333126D01*
X129561203Y-68290122D01*
X129561197Y-68290121D01*
X129529566Y-68287632D01*
X129526613Y-68287400D01*
X129526612Y-68287400D01*
X127403398Y-68287400D01*
X127403376Y-68287401D01*
X127368799Y-68290122D01*
X127220778Y-68333126D01*
X127220775Y-68333127D01*
X127088095Y-68411593D01*
X127088087Y-68411599D01*
X126979099Y-68520587D01*
X126979093Y-68520595D01*
X126900627Y-68653275D01*
X126900626Y-68653278D01*
X126857622Y-68801296D01*
X126857621Y-68801302D01*
X126854900Y-68835881D01*
X118645098Y-68835881D01*
X118644866Y-68832933D01*
X118642378Y-68801301D01*
X118599372Y-68653274D01*
X118520905Y-68520593D01*
X118520903Y-68520591D01*
X118520900Y-68520587D01*
X118411912Y-68411599D01*
X118411904Y-68411593D01*
X118279224Y-68333127D01*
X118279221Y-68333126D01*
X118131203Y-68290122D01*
X118131197Y-68290121D01*
X118099566Y-68287632D01*
X118096613Y-68287400D01*
X118096612Y-68287400D01*
X115973398Y-68287400D01*
X115973376Y-68287401D01*
X115938799Y-68290122D01*
X115790778Y-68333126D01*
X115790775Y-68333127D01*
X115658095Y-68411593D01*
X115658087Y-68411599D01*
X115549099Y-68520587D01*
X115549093Y-68520595D01*
X115470627Y-68653275D01*
X115470626Y-68653278D01*
X115427622Y-68801296D01*
X115427621Y-68801302D01*
X115424900Y-68835881D01*
X106350099Y-68835881D01*
X106350099Y-68561557D01*
X106350099Y-67618398D01*
X106350098Y-67618376D01*
X106347378Y-67583801D01*
X106304372Y-67435774D01*
X106225905Y-67303093D01*
X106225903Y-67303091D01*
X106225900Y-67303087D01*
X106126526Y-67203713D01*
X139619500Y-67203713D01*
X139619500Y-67416287D01*
X139622587Y-67435775D01*
X139652753Y-67626239D01*
X139718444Y-67828414D01*
X139814951Y-68017820D01*
X139939890Y-68189786D01*
X140090213Y-68340109D01*
X140262179Y-68465048D01*
X140262181Y-68465049D01*
X140262184Y-68465051D01*
X140451588Y-68561557D01*
X140653757Y-68627246D01*
X140863713Y-68660500D01*
X140863714Y-68660500D01*
X141076286Y-68660500D01*
X141076287Y-68660500D01*
X141286243Y-68627246D01*
X141488412Y-68561557D01*
X141677816Y-68465051D01*
X141751387Y-68411599D01*
X141849786Y-68340109D01*
X141849788Y-68340106D01*
X141849792Y-68340104D01*
X142000104Y-68189792D01*
X142000106Y-68189788D01*
X142000109Y-68189786D01*
X142125048Y-68017820D01*
X142125047Y-68017820D01*
X142125051Y-68017816D01*
X142221557Y-67828412D01*
X142287246Y-67626243D01*
X142320500Y-67416287D01*
X142320500Y-67203713D01*
X142287246Y-66993757D01*
X142221557Y-66791588D01*
X142125051Y-66602184D01*
X142125049Y-66602181D01*
X142125048Y-66602179D01*
X142000109Y-66430213D01*
X141886181Y-66316285D01*
X141852696Y-66254962D01*
X141857680Y-66185270D01*
X141899552Y-66129337D01*
X141930529Y-66112422D01*
X142062086Y-66063354D01*
X142062093Y-66063350D01*
X142177187Y-65977190D01*
X142177190Y-65977187D01*
X142263350Y-65862093D01*
X142263354Y-65862086D01*
X142313596Y-65727379D01*
X142313598Y-65727372D01*
X142319999Y-65667844D01*
X142320000Y-65667827D01*
X142320000Y-65024000D01*
X141400703Y-65024000D01*
X141435925Y-64962993D01*
X141470000Y-64835826D01*
X141470000Y-64704174D01*
X141435925Y-64577007D01*
X141400703Y-64516000D01*
X142320000Y-64516000D01*
X142320000Y-63872172D01*
X142319999Y-63872155D01*
X142313598Y-63812627D01*
X142313596Y-63812620D01*
X142263354Y-63677913D01*
X142263350Y-63677906D01*
X142177190Y-63562812D01*
X142177187Y-63562809D01*
X142062093Y-63476649D01*
X142062086Y-63476645D01*
X141927379Y-63426403D01*
X141927372Y-63426401D01*
X141867844Y-63420000D01*
X141224000Y-63420000D01*
X141224000Y-64339297D01*
X141162993Y-64304075D01*
X141035826Y-64270000D01*
X140904174Y-64270000D01*
X140777007Y-64304075D01*
X140716000Y-64339297D01*
X140716000Y-63420000D01*
X140072155Y-63420000D01*
X140012627Y-63426401D01*
X140012620Y-63426403D01*
X139877913Y-63476645D01*
X139877906Y-63476649D01*
X139762812Y-63562809D01*
X139762809Y-63562812D01*
X139676649Y-63677906D01*
X139676645Y-63677913D01*
X139626403Y-63812620D01*
X139626401Y-63812627D01*
X139620000Y-63872155D01*
X139620000Y-64516000D01*
X140539297Y-64516000D01*
X140504075Y-64577007D01*
X140470000Y-64704174D01*
X140470000Y-64835826D01*
X140504075Y-64962993D01*
X140539297Y-65024000D01*
X139620000Y-65024000D01*
X139620000Y-65667844D01*
X139626401Y-65727372D01*
X139626403Y-65727379D01*
X139676645Y-65862086D01*
X139676649Y-65862093D01*
X139762809Y-65977187D01*
X139762812Y-65977190D01*
X139877906Y-66063350D01*
X139877913Y-66063354D01*
X140009470Y-66112422D01*
X140065404Y-66154293D01*
X140089821Y-66219758D01*
X140074969Y-66288031D01*
X140053819Y-66316285D01*
X139939889Y-66430215D01*
X139814951Y-66602179D01*
X139718444Y-66791585D01*
X139652753Y-66993760D01*
X139633451Y-67115628D01*
X139619500Y-67203713D01*
X106126526Y-67203713D01*
X106116912Y-67194099D01*
X106116904Y-67194093D01*
X105984224Y-67115627D01*
X105984221Y-67115626D01*
X105836203Y-67072622D01*
X105836197Y-67072621D01*
X105807055Y-67070328D01*
X105801613Y-67069900D01*
X105801611Y-67069900D01*
X101278398Y-67069900D01*
X101278376Y-67069901D01*
X101243799Y-67072622D01*
X101095778Y-67115626D01*
X101095775Y-67115627D01*
X100963095Y-67194093D01*
X100963087Y-67194099D01*
X100854099Y-67303087D01*
X100854093Y-67303095D01*
X100775627Y-67435775D01*
X100775626Y-67435778D01*
X100732622Y-67583796D01*
X100732621Y-67583802D01*
X100729900Y-67618381D01*
X90639500Y-67618381D01*
X90639500Y-63398499D01*
X90659185Y-63331460D01*
X90711989Y-63285705D01*
X90781147Y-63275761D01*
X90819795Y-63288014D01*
X90940968Y-63349755D01*
X91135582Y-63412990D01*
X91337683Y-63445000D01*
X91542317Y-63445000D01*
X91744417Y-63412990D01*
X91939031Y-63349755D01*
X92121344Y-63256862D01*
X92162644Y-63226854D01*
X91480790Y-62545000D01*
X91492661Y-62545000D01*
X91594394Y-62517741D01*
X91685606Y-62465080D01*
X91760080Y-62390606D01*
X91812741Y-62299394D01*
X91840000Y-62197661D01*
X91840000Y-62185790D01*
X92521854Y-62867644D01*
X92551862Y-62826344D01*
X92644755Y-62644031D01*
X92707990Y-62449417D01*
X92740000Y-62247317D01*
X92740000Y-62042682D01*
X92739995Y-62042648D01*
X97759500Y-62042648D01*
X97759500Y-62247351D01*
X97791522Y-62449534D01*
X97854781Y-62644223D01*
X97913235Y-62758944D01*
X97947577Y-62826344D01*
X97947715Y-62826613D01*
X98068028Y-62992213D01*
X98212786Y-63136971D01*
X98367749Y-63249556D01*
X98378390Y-63257287D01*
X98494607Y-63316503D01*
X98560776Y-63350218D01*
X98560778Y-63350218D01*
X98560781Y-63350220D01*
X98645048Y-63377600D01*
X98755465Y-63413477D01*
X98837076Y-63426403D01*
X98957648Y-63445500D01*
X98957649Y-63445500D01*
X99162351Y-63445500D01*
X99162352Y-63445500D01*
X99364534Y-63413477D01*
X99559219Y-63350220D01*
X99741610Y-63257287D01*
X99841306Y-63184854D01*
X99907213Y-63136971D01*
X99907215Y-63136968D01*
X99907219Y-63136966D01*
X100051966Y-62992219D01*
X100051968Y-62992215D01*
X100051971Y-62992213D01*
X100104732Y-62919590D01*
X100172287Y-62826610D01*
X100265220Y-62644219D01*
X100328477Y-62449534D01*
X100360500Y-62247352D01*
X100360500Y-62042682D01*
X101570000Y-62042682D01*
X101570000Y-62247317D01*
X101602009Y-62449417D01*
X101665244Y-62644031D01*
X101758140Y-62826349D01*
X101788144Y-62867644D01*
X101788145Y-62867645D01*
X102470000Y-62185790D01*
X102470000Y-62197661D01*
X102497259Y-62299394D01*
X102549920Y-62390606D01*
X102624394Y-62465080D01*
X102715606Y-62517741D01*
X102817339Y-62545000D01*
X102829210Y-62545000D01*
X102147354Y-63226854D01*
X102147354Y-63226855D01*
X102188650Y-63256859D01*
X102370968Y-63349755D01*
X102565582Y-63412990D01*
X102767683Y-63445000D01*
X102972317Y-63445000D01*
X103174417Y-63412990D01*
X103369031Y-63349755D01*
X103551344Y-63256862D01*
X103592644Y-63226854D01*
X102910790Y-62545000D01*
X102922661Y-62545000D01*
X103024394Y-62517741D01*
X103115606Y-62465080D01*
X103190080Y-62390606D01*
X103242741Y-62299394D01*
X103270000Y-62197661D01*
X103270000Y-62185790D01*
X103951854Y-62867644D01*
X103981862Y-62826344D01*
X104074755Y-62644031D01*
X104137990Y-62449417D01*
X104170000Y-62247317D01*
X104170000Y-62042682D01*
X104169995Y-62042648D01*
X109189500Y-62042648D01*
X109189500Y-62247351D01*
X109221522Y-62449534D01*
X109284781Y-62644223D01*
X109343235Y-62758944D01*
X109377577Y-62826344D01*
X109377715Y-62826613D01*
X109498028Y-62992213D01*
X109642786Y-63136971D01*
X109797749Y-63249556D01*
X109808390Y-63257287D01*
X109924607Y-63316503D01*
X109990776Y-63350218D01*
X109990778Y-63350218D01*
X109990781Y-63350220D01*
X110075048Y-63377600D01*
X110185465Y-63413477D01*
X110267076Y-63426403D01*
X110387648Y-63445500D01*
X110387649Y-63445500D01*
X110592351Y-63445500D01*
X110592352Y-63445500D01*
X110794534Y-63413477D01*
X110989219Y-63350220D01*
X111171610Y-63257287D01*
X111271306Y-63184854D01*
X111337213Y-63136971D01*
X111337215Y-63136968D01*
X111337219Y-63136966D01*
X111481966Y-62992219D01*
X111481968Y-62992215D01*
X111481971Y-62992213D01*
X111534732Y-62919590D01*
X111602287Y-62826610D01*
X111695220Y-62644219D01*
X111758477Y-62449534D01*
X111790500Y-62247352D01*
X111790500Y-62042648D01*
X111783853Y-62000682D01*
X113000000Y-62000682D01*
X113000000Y-62205317D01*
X113032009Y-62407417D01*
X113095244Y-62602031D01*
X113188140Y-62784349D01*
X113218144Y-62825644D01*
X113218145Y-62825645D01*
X113900000Y-62143790D01*
X113900000Y-62155661D01*
X113927259Y-62257394D01*
X113979920Y-62348606D01*
X114054394Y-62423080D01*
X114145606Y-62475741D01*
X114247339Y-62503000D01*
X114259210Y-62503000D01*
X113577354Y-63184854D01*
X113577354Y-63184855D01*
X113618650Y-63214859D01*
X113800968Y-63307755D01*
X113995582Y-63370990D01*
X114197683Y-63403000D01*
X114402317Y-63403000D01*
X114604417Y-63370990D01*
X114799031Y-63307755D01*
X114981344Y-63214862D01*
X115022644Y-63184854D01*
X114340790Y-62503000D01*
X114352661Y-62503000D01*
X114454394Y-62475741D01*
X114545606Y-62423080D01*
X114620080Y-62348606D01*
X114672741Y-62257394D01*
X114700000Y-62155661D01*
X114700000Y-62143790D01*
X115381854Y-62825644D01*
X115411862Y-62784344D01*
X115504755Y-62602031D01*
X115567990Y-62407417D01*
X115600000Y-62205317D01*
X115600000Y-62000682D01*
X115599995Y-62000648D01*
X120619500Y-62000648D01*
X120619500Y-62205352D01*
X120620483Y-62211557D01*
X120651522Y-62407534D01*
X120714781Y-62602223D01*
X120778691Y-62727653D01*
X120807577Y-62784344D01*
X120807715Y-62784613D01*
X120928028Y-62950213D01*
X121072786Y-63094971D01*
X121227749Y-63207556D01*
X121238390Y-63215287D01*
X121320814Y-63257284D01*
X121420776Y-63308218D01*
X121420778Y-63308218D01*
X121420781Y-63308220D01*
X121525137Y-63342127D01*
X121615465Y-63371477D01*
X121654124Y-63377600D01*
X121817648Y-63403500D01*
X121817649Y-63403500D01*
X122022351Y-63403500D01*
X122022352Y-63403500D01*
X122224534Y-63371477D01*
X122419219Y-63308220D01*
X122601610Y-63215287D01*
X122709409Y-63136967D01*
X122767213Y-63094971D01*
X122767215Y-63094968D01*
X122767219Y-63094966D01*
X122911966Y-62950219D01*
X122911968Y-62950215D01*
X122911971Y-62950213D01*
X123001962Y-62826349D01*
X123032287Y-62784610D01*
X123125220Y-62602219D01*
X123188477Y-62407534D01*
X123220500Y-62205352D01*
X123220500Y-62000648D01*
X123218909Y-61990606D01*
X123218784Y-61989813D01*
X123216482Y-61975282D01*
X124430000Y-61975282D01*
X124430000Y-62179917D01*
X124462009Y-62382017D01*
X124525244Y-62576631D01*
X124618140Y-62758949D01*
X124648144Y-62800244D01*
X124648145Y-62800245D01*
X125330000Y-62118390D01*
X125330000Y-62130261D01*
X125357259Y-62231994D01*
X125409920Y-62323206D01*
X125484394Y-62397680D01*
X125575606Y-62450341D01*
X125677339Y-62477600D01*
X125689210Y-62477600D01*
X125007354Y-63159454D01*
X125007354Y-63159455D01*
X125048650Y-63189459D01*
X125230968Y-63282355D01*
X125425582Y-63345590D01*
X125627683Y-63377600D01*
X125832317Y-63377600D01*
X126034417Y-63345590D01*
X126229031Y-63282355D01*
X126411344Y-63189462D01*
X126452644Y-63159454D01*
X125770790Y-62477600D01*
X125782661Y-62477600D01*
X125884394Y-62450341D01*
X125975606Y-62397680D01*
X126050080Y-62323206D01*
X126102741Y-62231994D01*
X126130000Y-62130261D01*
X126130000Y-62118390D01*
X126811854Y-62800244D01*
X126841862Y-62758944D01*
X126934755Y-62576631D01*
X126997990Y-62382017D01*
X127030000Y-62179917D01*
X127030000Y-61975282D01*
X126997990Y-61773182D01*
X126934755Y-61578568D01*
X126841859Y-61396250D01*
X126811854Y-61354954D01*
X126130000Y-62036808D01*
X126130000Y-62024939D01*
X126102741Y-61923206D01*
X126050080Y-61831994D01*
X125975606Y-61757520D01*
X125884394Y-61704859D01*
X125782661Y-61677600D01*
X125770791Y-61677600D01*
X126452645Y-60995745D01*
X126452644Y-60995744D01*
X126411349Y-60965740D01*
X126229031Y-60872844D01*
X126034417Y-60809609D01*
X125832317Y-60777600D01*
X125627683Y-60777600D01*
X125425582Y-60809609D01*
X125230968Y-60872844D01*
X125048646Y-60965742D01*
X125007354Y-60995743D01*
X125007353Y-60995744D01*
X125689210Y-61677600D01*
X125677339Y-61677600D01*
X125575606Y-61704859D01*
X125484394Y-61757520D01*
X125409920Y-61831994D01*
X125357259Y-61923206D01*
X125330000Y-62024939D01*
X125330000Y-62036809D01*
X124648144Y-61354953D01*
X124648143Y-61354954D01*
X124618142Y-61396246D01*
X124525244Y-61578568D01*
X124462009Y-61773182D01*
X124430000Y-61975282D01*
X123216482Y-61975282D01*
X123188477Y-61798465D01*
X123149205Y-61677600D01*
X123125220Y-61603781D01*
X123125218Y-61603778D01*
X123125218Y-61603776D01*
X123061341Y-61478412D01*
X123032287Y-61421390D01*
X122984019Y-61354954D01*
X122911971Y-61255786D01*
X122767213Y-61111028D01*
X122601613Y-60990715D01*
X122601612Y-60990714D01*
X122601610Y-60990713D01*
X122544653Y-60961691D01*
X122419223Y-60897781D01*
X122224534Y-60834522D01*
X122049995Y-60806878D01*
X122022352Y-60802500D01*
X121817648Y-60802500D01*
X121793329Y-60806351D01*
X121615465Y-60834522D01*
X121420776Y-60897781D01*
X121238386Y-60990715D01*
X121072786Y-61111028D01*
X120928028Y-61255786D01*
X120807715Y-61421386D01*
X120714781Y-61603776D01*
X120651522Y-61798465D01*
X120620909Y-61991753D01*
X120619500Y-62000648D01*
X115599995Y-62000648D01*
X115567990Y-61798582D01*
X115504755Y-61603968D01*
X115411859Y-61421650D01*
X115381854Y-61380354D01*
X114700000Y-62062208D01*
X114700000Y-62050339D01*
X114672741Y-61948606D01*
X114620080Y-61857394D01*
X114545606Y-61782920D01*
X114454394Y-61730259D01*
X114352661Y-61703000D01*
X114340791Y-61703000D01*
X115022645Y-61021145D01*
X115022644Y-61021144D01*
X114981349Y-60991140D01*
X114799031Y-60898244D01*
X114604417Y-60835009D01*
X114402317Y-60803000D01*
X114197683Y-60803000D01*
X113995582Y-60835009D01*
X113800968Y-60898244D01*
X113618646Y-60991142D01*
X113577354Y-61021143D01*
X113577353Y-61021144D01*
X114259210Y-61703000D01*
X114247339Y-61703000D01*
X114145606Y-61730259D01*
X114054394Y-61782920D01*
X113979920Y-61857394D01*
X113927259Y-61948606D01*
X113900000Y-62050339D01*
X113900000Y-62062209D01*
X113218144Y-61380353D01*
X113218143Y-61380354D01*
X113188142Y-61421646D01*
X113095244Y-61603968D01*
X113032009Y-61798582D01*
X113000000Y-62000682D01*
X111783853Y-62000682D01*
X111761158Y-61857394D01*
X111758477Y-61840465D01*
X111727065Y-61743790D01*
X111695220Y-61645781D01*
X111695218Y-61645778D01*
X111695218Y-61645776D01*
X111660875Y-61578376D01*
X111602287Y-61463390D01*
X111572472Y-61422353D01*
X111481971Y-61297786D01*
X111337213Y-61153028D01*
X111171613Y-61032715D01*
X111171612Y-61032714D01*
X111171610Y-61032713D01*
X111111305Y-61001986D01*
X110989223Y-60939781D01*
X110794534Y-60876522D01*
X110619995Y-60848878D01*
X110592352Y-60844500D01*
X110387648Y-60844500D01*
X110363329Y-60848351D01*
X110185465Y-60876522D01*
X109990776Y-60939781D01*
X109808386Y-61032715D01*
X109642786Y-61153028D01*
X109498028Y-61297786D01*
X109377715Y-61463386D01*
X109284781Y-61645776D01*
X109221522Y-61840465D01*
X109189500Y-62042648D01*
X104169995Y-62042648D01*
X104137990Y-61840582D01*
X104074755Y-61645968D01*
X103981859Y-61463650D01*
X103951854Y-61422354D01*
X103270000Y-62104208D01*
X103270000Y-62092339D01*
X103242741Y-61990606D01*
X103190080Y-61899394D01*
X103115606Y-61824920D01*
X103024394Y-61772259D01*
X102922661Y-61745000D01*
X102910791Y-61745000D01*
X103592645Y-61063145D01*
X103592644Y-61063144D01*
X103551349Y-61033140D01*
X103369031Y-60940244D01*
X103174417Y-60877009D01*
X102972317Y-60845000D01*
X102767683Y-60845000D01*
X102565582Y-60877009D01*
X102370968Y-60940244D01*
X102188646Y-61033142D01*
X102147354Y-61063143D01*
X102147353Y-61063144D01*
X102829210Y-61745000D01*
X102817339Y-61745000D01*
X102715606Y-61772259D01*
X102624394Y-61824920D01*
X102549920Y-61899394D01*
X102497259Y-61990606D01*
X102470000Y-62092339D01*
X102470000Y-62104209D01*
X101788144Y-61422353D01*
X101788143Y-61422354D01*
X101758142Y-61463646D01*
X101665244Y-61645968D01*
X101602009Y-61840582D01*
X101570000Y-62042682D01*
X100360500Y-62042682D01*
X100360500Y-62042648D01*
X100341401Y-61922061D01*
X100328477Y-61840465D01*
X100297065Y-61743790D01*
X100265220Y-61645781D01*
X100265218Y-61645778D01*
X100265218Y-61645776D01*
X100230875Y-61578376D01*
X100172287Y-61463390D01*
X100142472Y-61422353D01*
X100051971Y-61297786D01*
X99907213Y-61153028D01*
X99741613Y-61032715D01*
X99741612Y-61032714D01*
X99741610Y-61032713D01*
X99681305Y-61001986D01*
X99559223Y-60939781D01*
X99364534Y-60876522D01*
X99189995Y-60848878D01*
X99162352Y-60844500D01*
X98957648Y-60844500D01*
X98933329Y-60848351D01*
X98755465Y-60876522D01*
X98560776Y-60939781D01*
X98378386Y-61032715D01*
X98212786Y-61153028D01*
X98068028Y-61297786D01*
X97947715Y-61463386D01*
X97854781Y-61645776D01*
X97791522Y-61840465D01*
X97759500Y-62042648D01*
X92739995Y-62042648D01*
X92707990Y-61840582D01*
X92644755Y-61645968D01*
X92551859Y-61463650D01*
X92521854Y-61422354D01*
X91840000Y-62104208D01*
X91840000Y-62092339D01*
X91812741Y-61990606D01*
X91760080Y-61899394D01*
X91685606Y-61824920D01*
X91594394Y-61772259D01*
X91492661Y-61745000D01*
X91480790Y-61745000D01*
X92162645Y-61063145D01*
X92162644Y-61063144D01*
X92121349Y-61033140D01*
X91939031Y-60940244D01*
X91744417Y-60877009D01*
X91542317Y-60845000D01*
X91337683Y-60845000D01*
X91135582Y-60877009D01*
X90940968Y-60940244D01*
X90819795Y-61001986D01*
X90751126Y-61014882D01*
X90686385Y-60988606D01*
X90646128Y-60931499D01*
X90639500Y-60891501D01*
X90639500Y-59999059D01*
X90659185Y-59932020D01*
X90711989Y-59886265D01*
X90781147Y-59876321D01*
X90819792Y-59888573D01*
X90874934Y-59916669D01*
X90940776Y-59950218D01*
X90940778Y-59950218D01*
X90940781Y-59950220D01*
X91039750Y-59982377D01*
X91135465Y-60013477D01*
X91210112Y-60025300D01*
X91337648Y-60045500D01*
X91337649Y-60045500D01*
X91542351Y-60045500D01*
X91542352Y-60045500D01*
X91744534Y-60013477D01*
X91939219Y-59950220D01*
X92121610Y-59857287D01*
X92252182Y-59762422D01*
X92287213Y-59736971D01*
X92287215Y-59736968D01*
X92287219Y-59736966D01*
X92431966Y-59592219D01*
X92431968Y-59592215D01*
X92431971Y-59592213D01*
X92490180Y-59512093D01*
X92552287Y-59426610D01*
X92645220Y-59244219D01*
X92708477Y-59049534D01*
X92740500Y-58847352D01*
X92740500Y-58642648D01*
X97759500Y-58642648D01*
X97759500Y-58847351D01*
X97791522Y-59049534D01*
X97854781Y-59244223D01*
X97918691Y-59369653D01*
X97919952Y-59372127D01*
X97947715Y-59426613D01*
X98068028Y-59592213D01*
X98212786Y-59736971D01*
X98305449Y-59804293D01*
X98378390Y-59857287D01*
X98494607Y-59916503D01*
X98560776Y-59950218D01*
X98560778Y-59950218D01*
X98560781Y-59950220D01*
X98659750Y-59982377D01*
X98755465Y-60013477D01*
X98830112Y-60025300D01*
X98957648Y-60045500D01*
X98957649Y-60045500D01*
X99162351Y-60045500D01*
X99162352Y-60045500D01*
X99364534Y-60013477D01*
X99559219Y-59950220D01*
X99741610Y-59857287D01*
X99872182Y-59762422D01*
X99907213Y-59736971D01*
X99907215Y-59736968D01*
X99907219Y-59736966D01*
X100051966Y-59592219D01*
X100051968Y-59592215D01*
X100051971Y-59592213D01*
X100110180Y-59512093D01*
X100172287Y-59426610D01*
X100265220Y-59244219D01*
X100328477Y-59049534D01*
X100360500Y-58847352D01*
X100360500Y-58642648D01*
X101569500Y-58642648D01*
X101569500Y-58847351D01*
X101601522Y-59049534D01*
X101664781Y-59244223D01*
X101728691Y-59369653D01*
X101729952Y-59372127D01*
X101757715Y-59426613D01*
X101878028Y-59592213D01*
X102022786Y-59736971D01*
X102115449Y-59804293D01*
X102188390Y-59857287D01*
X102304607Y-59916503D01*
X102370776Y-59950218D01*
X102370778Y-59950218D01*
X102370781Y-59950220D01*
X102469750Y-59982377D01*
X102565465Y-60013477D01*
X102640112Y-60025300D01*
X102767648Y-60045500D01*
X102767649Y-60045500D01*
X102972351Y-60045500D01*
X102972352Y-60045500D01*
X103174534Y-60013477D01*
X103369219Y-59950220D01*
X103551610Y-59857287D01*
X103682182Y-59762422D01*
X103717213Y-59736971D01*
X103717215Y-59736968D01*
X103717219Y-59736966D01*
X103861966Y-59592219D01*
X103861968Y-59592215D01*
X103861971Y-59592213D01*
X103920180Y-59512093D01*
X103982287Y-59426610D01*
X104075220Y-59244219D01*
X104138477Y-59049534D01*
X104170500Y-58847352D01*
X104170500Y-58642648D01*
X109189500Y-58642648D01*
X109189500Y-58847351D01*
X109221522Y-59049534D01*
X109284781Y-59244223D01*
X109348691Y-59369653D01*
X109349952Y-59372127D01*
X109377715Y-59426613D01*
X109498028Y-59592213D01*
X109642786Y-59736971D01*
X109735449Y-59804293D01*
X109808390Y-59857287D01*
X109924607Y-59916503D01*
X109990776Y-59950218D01*
X109990778Y-59950218D01*
X109990781Y-59950220D01*
X110089750Y-59982377D01*
X110185465Y-60013477D01*
X110260112Y-60025300D01*
X110387648Y-60045500D01*
X110387649Y-60045500D01*
X110592351Y-60045500D01*
X110592352Y-60045500D01*
X110794534Y-60013477D01*
X110989219Y-59950220D01*
X111171610Y-59857287D01*
X111302182Y-59762422D01*
X111337213Y-59736971D01*
X111337215Y-59736968D01*
X111337219Y-59736966D01*
X111481966Y-59592219D01*
X111481968Y-59592215D01*
X111481971Y-59592213D01*
X111540180Y-59512093D01*
X111602287Y-59426610D01*
X111695220Y-59244219D01*
X111758477Y-59049534D01*
X111790500Y-58847352D01*
X111790500Y-58642648D01*
X111787301Y-58622448D01*
X112999500Y-58622448D01*
X112999500Y-58827151D01*
X113031522Y-59029334D01*
X113094781Y-59224023D01*
X113142586Y-59317844D01*
X113172917Y-59377372D01*
X113187715Y-59406413D01*
X113308028Y-59572013D01*
X113452786Y-59716771D01*
X113574155Y-59804949D01*
X113618390Y-59837087D01*
X113714907Y-59886265D01*
X113800776Y-59930018D01*
X113800778Y-59930018D01*
X113800781Y-59930020D01*
X113883922Y-59957034D01*
X113995465Y-59993277D01*
X114096557Y-60009288D01*
X114197648Y-60025300D01*
X114197649Y-60025300D01*
X114402351Y-60025300D01*
X114402352Y-60025300D01*
X114604534Y-59993277D01*
X114799219Y-59930020D01*
X114981610Y-59837087D01*
X115074590Y-59769532D01*
X115147213Y-59716771D01*
X115147215Y-59716768D01*
X115147219Y-59716766D01*
X115291966Y-59572019D01*
X115291968Y-59572015D01*
X115291971Y-59572013D01*
X115344732Y-59499390D01*
X115412287Y-59406410D01*
X115505220Y-59224019D01*
X115568477Y-59029334D01*
X115600500Y-58827152D01*
X115600500Y-58622448D01*
X120619500Y-58622448D01*
X120619500Y-58827151D01*
X120651522Y-59029334D01*
X120714781Y-59224023D01*
X120762586Y-59317844D01*
X120792917Y-59377372D01*
X120807715Y-59406413D01*
X120928028Y-59572013D01*
X121072786Y-59716771D01*
X121194155Y-59804949D01*
X121238390Y-59837087D01*
X121334907Y-59886265D01*
X121420776Y-59930018D01*
X121420778Y-59930018D01*
X121420781Y-59930020D01*
X121503922Y-59957034D01*
X121615465Y-59993277D01*
X121716557Y-60009288D01*
X121817648Y-60025300D01*
X121817649Y-60025300D01*
X122022351Y-60025300D01*
X122022352Y-60025300D01*
X122224534Y-59993277D01*
X122419219Y-59930020D01*
X122601610Y-59837087D01*
X122694590Y-59769532D01*
X122767213Y-59716771D01*
X122767215Y-59716768D01*
X122767219Y-59716766D01*
X122911966Y-59572019D01*
X122911968Y-59572015D01*
X122911971Y-59572013D01*
X122964732Y-59499390D01*
X123032287Y-59406410D01*
X123125220Y-59224019D01*
X123188477Y-59029334D01*
X123220500Y-58827152D01*
X123220500Y-58622448D01*
X124429500Y-58622448D01*
X124429500Y-58827151D01*
X124461522Y-59029334D01*
X124524781Y-59224023D01*
X124572586Y-59317844D01*
X124602917Y-59377372D01*
X124617715Y-59406413D01*
X124738028Y-59572013D01*
X124882786Y-59716771D01*
X125004155Y-59804949D01*
X125048390Y-59837087D01*
X125144907Y-59886265D01*
X125230776Y-59930018D01*
X125230778Y-59930018D01*
X125230781Y-59930020D01*
X125313922Y-59957034D01*
X125425465Y-59993277D01*
X125526557Y-60009288D01*
X125627648Y-60025300D01*
X125627649Y-60025300D01*
X125832351Y-60025300D01*
X125832352Y-60025300D01*
X126034534Y-59993277D01*
X126229219Y-59930020D01*
X126411610Y-59837087D01*
X126504590Y-59769532D01*
X126577213Y-59716771D01*
X126577215Y-59716768D01*
X126577219Y-59716766D01*
X126721966Y-59572019D01*
X126721968Y-59572015D01*
X126721971Y-59572013D01*
X126774732Y-59499390D01*
X126842287Y-59406410D01*
X126935220Y-59224019D01*
X126998477Y-59029334D01*
X127030500Y-58827152D01*
X127030500Y-58622448D01*
X127008861Y-58485826D01*
X126998477Y-58420265D01*
X126969127Y-58329937D01*
X126935220Y-58225581D01*
X126935218Y-58225578D01*
X126935218Y-58225576D01*
X126877853Y-58112993D01*
X126842287Y-58043190D01*
X126777542Y-57954075D01*
X126721971Y-57877586D01*
X126577213Y-57732828D01*
X126411613Y-57612515D01*
X126411612Y-57612514D01*
X126411610Y-57612513D01*
X126335300Y-57573631D01*
X126229223Y-57519581D01*
X126034534Y-57456322D01*
X125859995Y-57428678D01*
X125832352Y-57424300D01*
X125627648Y-57424300D01*
X125603329Y-57428151D01*
X125425465Y-57456322D01*
X125230776Y-57519581D01*
X125048386Y-57612515D01*
X124882786Y-57732828D01*
X124738028Y-57877586D01*
X124617715Y-58043186D01*
X124524781Y-58225576D01*
X124461522Y-58420265D01*
X124429500Y-58622448D01*
X123220500Y-58622448D01*
X123198861Y-58485826D01*
X123188477Y-58420265D01*
X123159127Y-58329937D01*
X123125220Y-58225581D01*
X123125218Y-58225578D01*
X123125218Y-58225576D01*
X123067853Y-58112993D01*
X123032287Y-58043190D01*
X122967542Y-57954075D01*
X122911971Y-57877586D01*
X122767213Y-57732828D01*
X122601613Y-57612515D01*
X122601612Y-57612514D01*
X122601610Y-57612513D01*
X122525300Y-57573631D01*
X122419223Y-57519581D01*
X122224534Y-57456322D01*
X122049995Y-57428678D01*
X122022352Y-57424300D01*
X121817648Y-57424300D01*
X121793329Y-57428151D01*
X121615465Y-57456322D01*
X121420776Y-57519581D01*
X121238386Y-57612515D01*
X121072786Y-57732828D01*
X120928028Y-57877586D01*
X120807715Y-58043186D01*
X120714781Y-58225576D01*
X120651522Y-58420265D01*
X120619500Y-58622448D01*
X115600500Y-58622448D01*
X115578861Y-58485826D01*
X115568477Y-58420265D01*
X115539127Y-58329937D01*
X115505220Y-58225581D01*
X115505218Y-58225578D01*
X115505218Y-58225576D01*
X115447853Y-58112993D01*
X115412287Y-58043190D01*
X115347542Y-57954075D01*
X115291971Y-57877586D01*
X115147213Y-57732828D01*
X114981613Y-57612515D01*
X114981612Y-57612514D01*
X114981610Y-57612513D01*
X114905300Y-57573631D01*
X114799223Y-57519581D01*
X114604534Y-57456322D01*
X114429995Y-57428678D01*
X114402352Y-57424300D01*
X114197648Y-57424300D01*
X114173329Y-57428151D01*
X113995465Y-57456322D01*
X113800776Y-57519581D01*
X113618386Y-57612515D01*
X113452786Y-57732828D01*
X113308028Y-57877586D01*
X113187715Y-58043186D01*
X113094781Y-58225576D01*
X113031522Y-58420265D01*
X112999500Y-58622448D01*
X111787301Y-58622448D01*
X111758477Y-58440466D01*
X111751913Y-58420265D01*
X111715408Y-58307914D01*
X111695220Y-58245781D01*
X111695218Y-58245778D01*
X111695218Y-58245776D01*
X111654569Y-58166000D01*
X111602287Y-58063390D01*
X111570691Y-58019901D01*
X111481971Y-57897786D01*
X111337213Y-57753028D01*
X111171613Y-57632715D01*
X111171612Y-57632714D01*
X111171610Y-57632713D01*
X111110204Y-57601425D01*
X110989223Y-57539781D01*
X110794534Y-57476522D01*
X110619995Y-57448878D01*
X110592352Y-57444500D01*
X110387648Y-57444500D01*
X110363329Y-57448351D01*
X110185465Y-57476522D01*
X109990776Y-57539781D01*
X109808386Y-57632715D01*
X109642786Y-57753028D01*
X109498028Y-57897786D01*
X109377715Y-58063386D01*
X109284781Y-58245776D01*
X109221522Y-58440465D01*
X109189500Y-58642648D01*
X104170500Y-58642648D01*
X104152990Y-58532093D01*
X104138477Y-58440465D01*
X104095408Y-58307914D01*
X104075220Y-58245781D01*
X104075218Y-58245778D01*
X104075218Y-58245776D01*
X104034569Y-58166000D01*
X103982287Y-58063390D01*
X103950691Y-58019901D01*
X103861971Y-57897786D01*
X103717213Y-57753028D01*
X103551613Y-57632715D01*
X103551612Y-57632714D01*
X103551610Y-57632713D01*
X103490204Y-57601425D01*
X103369223Y-57539781D01*
X103174534Y-57476522D01*
X102999995Y-57448878D01*
X102972352Y-57444500D01*
X102767648Y-57444500D01*
X102743329Y-57448351D01*
X102565465Y-57476522D01*
X102370776Y-57539781D01*
X102188386Y-57632715D01*
X102022786Y-57753028D01*
X101878028Y-57897786D01*
X101757715Y-58063386D01*
X101664781Y-58245776D01*
X101601522Y-58440465D01*
X101569500Y-58642648D01*
X100360500Y-58642648D01*
X100342990Y-58532093D01*
X100328477Y-58440465D01*
X100285408Y-58307914D01*
X100265220Y-58245781D01*
X100265218Y-58245778D01*
X100265218Y-58245776D01*
X100224569Y-58166000D01*
X100172287Y-58063390D01*
X100140691Y-58019901D01*
X100051971Y-57897786D01*
X99907213Y-57753028D01*
X99741613Y-57632715D01*
X99741612Y-57632714D01*
X99741610Y-57632713D01*
X99680204Y-57601425D01*
X99559223Y-57539781D01*
X99364534Y-57476522D01*
X99189995Y-57448878D01*
X99162352Y-57444500D01*
X98957648Y-57444500D01*
X98933329Y-57448351D01*
X98755465Y-57476522D01*
X98560776Y-57539781D01*
X98378386Y-57632715D01*
X98212786Y-57753028D01*
X98068028Y-57897786D01*
X97947715Y-58063386D01*
X97854781Y-58245776D01*
X97791522Y-58440465D01*
X97759500Y-58642648D01*
X92740500Y-58642648D01*
X92722990Y-58532093D01*
X92708477Y-58440465D01*
X92665408Y-58307914D01*
X92645220Y-58245781D01*
X92645218Y-58245778D01*
X92645218Y-58245776D01*
X92604569Y-58166000D01*
X92552287Y-58063390D01*
X92520691Y-58019901D01*
X92431971Y-57897786D01*
X92287213Y-57753028D01*
X92121613Y-57632715D01*
X92121612Y-57632714D01*
X92121610Y-57632713D01*
X92060204Y-57601425D01*
X91939223Y-57539781D01*
X91744534Y-57476522D01*
X91569995Y-57448878D01*
X91542352Y-57444500D01*
X91337648Y-57444500D01*
X91313329Y-57448351D01*
X91135465Y-57476522D01*
X91002950Y-57519580D01*
X90940781Y-57539780D01*
X90940778Y-57539781D01*
X90940776Y-57539782D01*
X90819795Y-57601425D01*
X90751125Y-57614321D01*
X90686385Y-57588044D01*
X90646128Y-57530938D01*
X90639500Y-57490940D01*
X90639500Y-53562135D01*
X91257000Y-53562135D01*
X91257000Y-55657870D01*
X91257001Y-55657876D01*
X91263408Y-55717483D01*
X91313702Y-55852328D01*
X91313706Y-55852335D01*
X91399952Y-55967544D01*
X91399955Y-55967547D01*
X91515164Y-56053793D01*
X91515171Y-56053797D01*
X91650017Y-56104091D01*
X91650016Y-56104091D01*
X91656944Y-56104835D01*
X91709627Y-56110500D01*
X93710372Y-56110499D01*
X93769983Y-56104091D01*
X93904831Y-56053796D01*
X94020046Y-55967546D01*
X94078764Y-55889107D01*
X94134696Y-55847239D01*
X94204387Y-55842255D01*
X94250914Y-55863103D01*
X94415247Y-55982496D01*
X94431019Y-55993955D01*
X94650170Y-56105618D01*
X94884090Y-56181624D01*
X94975189Y-56196052D01*
X95127016Y-56220100D01*
X95127021Y-56220100D01*
X95372984Y-56220100D01*
X95507940Y-56198724D01*
X95615910Y-56181624D01*
X95849830Y-56105618D01*
X96068981Y-55993955D01*
X96251213Y-55861557D01*
X96267960Y-55849390D01*
X96267962Y-55849387D01*
X96267966Y-55849385D01*
X96441885Y-55675466D01*
X96488002Y-55611991D01*
X96543332Y-55569324D01*
X96612945Y-55563345D01*
X96674740Y-55595950D01*
X96681293Y-55602938D01*
X96843757Y-55765402D01*
X97028723Y-55899788D01*
X97232429Y-56003582D01*
X97449871Y-56074233D01*
X97536000Y-56087875D01*
X97536000Y-55098438D01*
X97577708Y-55122518D01*
X97717591Y-55160000D01*
X97862409Y-55160000D01*
X98002292Y-55122518D01*
X98044000Y-55098438D01*
X98044000Y-56087874D01*
X98130128Y-56074233D01*
X98347570Y-56003582D01*
X98551276Y-55899788D01*
X98736242Y-55765402D01*
X98897902Y-55603742D01*
X99032288Y-55418776D01*
X99136082Y-55215068D01*
X99206734Y-54997625D01*
X99206734Y-54997624D01*
X99227899Y-54864000D01*
X98278438Y-54864000D01*
X98302518Y-54822292D01*
X98340000Y-54682409D01*
X98340000Y-54537591D01*
X98302518Y-54397708D01*
X98278438Y-54356000D01*
X99227899Y-54356000D01*
X99206734Y-54222375D01*
X99206734Y-54222374D01*
X99136082Y-54004931D01*
X99032288Y-53801223D01*
X98909116Y-53631692D01*
X98909115Y-53631690D01*
X98897905Y-53616260D01*
X98843780Y-53562135D01*
X102687000Y-53562135D01*
X102687000Y-55657870D01*
X102687001Y-55657876D01*
X102693408Y-55717483D01*
X102743702Y-55852328D01*
X102743706Y-55852335D01*
X102829952Y-55967544D01*
X102829955Y-55967547D01*
X102945164Y-56053793D01*
X102945171Y-56053797D01*
X103080017Y-56104091D01*
X103080016Y-56104091D01*
X103086944Y-56104835D01*
X103139627Y-56110500D01*
X105140372Y-56110499D01*
X105199983Y-56104091D01*
X105334831Y-56053796D01*
X105450046Y-55967546D01*
X105508764Y-55889107D01*
X105564696Y-55847239D01*
X105634387Y-55842255D01*
X105680914Y-55863103D01*
X105845247Y-55982496D01*
X105861019Y-55993955D01*
X106080170Y-56105618D01*
X106314090Y-56181624D01*
X106405189Y-56196052D01*
X106557016Y-56220100D01*
X106557021Y-56220100D01*
X106802984Y-56220100D01*
X106937940Y-56198724D01*
X107045910Y-56181624D01*
X107279830Y-56105618D01*
X107498981Y-55993955D01*
X107681213Y-55861557D01*
X107697960Y-55849390D01*
X107697962Y-55849387D01*
X107697966Y-55849385D01*
X107871885Y-55675466D01*
X107918002Y-55611991D01*
X107973332Y-55569324D01*
X108042945Y-55563345D01*
X108104740Y-55595950D01*
X108111293Y-55602938D01*
X108273757Y-55765402D01*
X108458723Y-55899788D01*
X108662429Y-56003582D01*
X108879871Y-56074233D01*
X108966000Y-56087875D01*
X108966000Y-55098438D01*
X109007708Y-55122518D01*
X109147591Y-55160000D01*
X109292409Y-55160000D01*
X109432292Y-55122518D01*
X109474000Y-55098438D01*
X109474000Y-56087874D01*
X109560128Y-56074233D01*
X109777570Y-56003582D01*
X109981276Y-55899788D01*
X110166242Y-55765402D01*
X110327902Y-55603742D01*
X110462288Y-55418776D01*
X110566082Y-55215068D01*
X110636734Y-54997625D01*
X110636734Y-54997624D01*
X110657899Y-54864000D01*
X109708438Y-54864000D01*
X109732518Y-54822292D01*
X109770000Y-54682409D01*
X109770000Y-54537591D01*
X109732518Y-54397708D01*
X109708438Y-54356000D01*
X110657899Y-54356000D01*
X110636734Y-54222375D01*
X110636734Y-54222374D01*
X110566082Y-54004931D01*
X110462288Y-53801223D01*
X110339116Y-53631692D01*
X110339115Y-53631690D01*
X110327905Y-53616260D01*
X110273780Y-53562135D01*
X114117000Y-53562135D01*
X114117000Y-55657870D01*
X114117001Y-55657876D01*
X114123408Y-55717483D01*
X114173702Y-55852328D01*
X114173706Y-55852335D01*
X114259952Y-55967544D01*
X114259955Y-55967547D01*
X114375164Y-56053793D01*
X114375171Y-56053797D01*
X114510017Y-56104091D01*
X114510016Y-56104091D01*
X114516944Y-56104835D01*
X114569627Y-56110500D01*
X116570372Y-56110499D01*
X116629983Y-56104091D01*
X116764831Y-56053796D01*
X116880046Y-55967546D01*
X116938764Y-55889107D01*
X116994696Y-55847239D01*
X117064387Y-55842255D01*
X117110914Y-55863103D01*
X117275247Y-55982496D01*
X117291019Y-55993955D01*
X117510170Y-56105618D01*
X117744090Y-56181624D01*
X117835189Y-56196052D01*
X117987016Y-56220100D01*
X117987021Y-56220100D01*
X118232984Y-56220100D01*
X118367940Y-56198724D01*
X118475910Y-56181624D01*
X118709830Y-56105618D01*
X118928981Y-55993955D01*
X119111213Y-55861557D01*
X119127960Y-55849390D01*
X119127962Y-55849387D01*
X119127966Y-55849385D01*
X119301885Y-55675466D01*
X119348002Y-55611991D01*
X119403332Y-55569324D01*
X119472945Y-55563345D01*
X119534740Y-55595950D01*
X119541293Y-55602938D01*
X119703757Y-55765402D01*
X119888723Y-55899788D01*
X120092429Y-56003582D01*
X120309871Y-56074233D01*
X120396000Y-56087875D01*
X120396000Y-55098438D01*
X120437708Y-55122518D01*
X120577591Y-55160000D01*
X120722409Y-55160000D01*
X120862292Y-55122518D01*
X120904000Y-55098438D01*
X120904000Y-56087874D01*
X120990128Y-56074233D01*
X121207570Y-56003582D01*
X121411276Y-55899788D01*
X121596242Y-55765402D01*
X121757902Y-55603742D01*
X121892288Y-55418776D01*
X121996082Y-55215068D01*
X122066734Y-54997625D01*
X122066734Y-54997624D01*
X122087899Y-54864000D01*
X121138438Y-54864000D01*
X121162518Y-54822292D01*
X121200000Y-54682409D01*
X121200000Y-54537591D01*
X121162518Y-54397708D01*
X121138438Y-54356000D01*
X122087899Y-54356000D01*
X122066734Y-54222375D01*
X122066734Y-54222374D01*
X121996082Y-54004931D01*
X121892288Y-53801223D01*
X121769116Y-53631692D01*
X121769115Y-53631690D01*
X121757905Y-53616260D01*
X121703780Y-53562135D01*
X125547000Y-53562135D01*
X125547000Y-55657870D01*
X125547001Y-55657876D01*
X125553408Y-55717483D01*
X125603702Y-55852328D01*
X125603706Y-55852335D01*
X125689952Y-55967544D01*
X125689955Y-55967547D01*
X125805164Y-56053793D01*
X125805171Y-56053797D01*
X125940017Y-56104091D01*
X125940016Y-56104091D01*
X125946944Y-56104835D01*
X125999627Y-56110500D01*
X128000372Y-56110499D01*
X128059983Y-56104091D01*
X128194831Y-56053796D01*
X128310046Y-55967546D01*
X128368764Y-55889107D01*
X128424696Y-55847239D01*
X128494387Y-55842255D01*
X128540914Y-55863103D01*
X128705247Y-55982496D01*
X128721019Y-55993955D01*
X128940170Y-56105618D01*
X129174090Y-56181624D01*
X129265189Y-56196052D01*
X129417016Y-56220100D01*
X129417021Y-56220100D01*
X129662984Y-56220100D01*
X129797940Y-56198724D01*
X129905910Y-56181624D01*
X130139830Y-56105618D01*
X130358981Y-55993955D01*
X130541213Y-55861557D01*
X130557960Y-55849390D01*
X130557962Y-55849387D01*
X130557966Y-55849385D01*
X130731885Y-55675466D01*
X130778002Y-55611991D01*
X130833332Y-55569324D01*
X130902945Y-55563345D01*
X130964740Y-55595950D01*
X130971293Y-55602938D01*
X131133757Y-55765402D01*
X131318723Y-55899788D01*
X131522429Y-56003582D01*
X131739871Y-56074233D01*
X131826000Y-56087875D01*
X131826000Y-55098438D01*
X131867708Y-55122518D01*
X132007591Y-55160000D01*
X132152409Y-55160000D01*
X132292292Y-55122518D01*
X132334000Y-55098438D01*
X132334000Y-56087874D01*
X132420128Y-56074233D01*
X132637570Y-56003582D01*
X132841276Y-55899788D01*
X133026242Y-55765402D01*
X133187902Y-55603742D01*
X133322288Y-55418776D01*
X133426082Y-55215068D01*
X133496734Y-54997625D01*
X133496734Y-54997624D01*
X133517899Y-54864000D01*
X132568438Y-54864000D01*
X132592518Y-54822292D01*
X132630000Y-54682409D01*
X132630000Y-54537591D01*
X132592518Y-54397708D01*
X132568438Y-54356000D01*
X133517899Y-54356000D01*
X133496734Y-54222375D01*
X133496734Y-54222374D01*
X133426082Y-54004931D01*
X133322288Y-53801223D01*
X133187902Y-53616257D01*
X133026242Y-53454597D01*
X132841276Y-53320211D01*
X132637568Y-53216417D01*
X132420124Y-53145765D01*
X132334000Y-53132124D01*
X132334000Y-54121561D01*
X132292292Y-54097482D01*
X132152409Y-54060000D01*
X132007591Y-54060000D01*
X131867708Y-54097482D01*
X131826000Y-54121561D01*
X131826000Y-53132124D01*
X131825999Y-53132124D01*
X131739875Y-53145765D01*
X131522431Y-53216417D01*
X131318723Y-53320211D01*
X131133757Y-53454597D01*
X130968650Y-53619705D01*
X130967766Y-53618821D01*
X130914097Y-53653851D01*
X130844229Y-53654345D01*
X130785185Y-53616988D01*
X130778003Y-53608009D01*
X130731890Y-53544540D01*
X130731886Y-53544535D01*
X130557960Y-53370609D01*
X130358984Y-53226047D01*
X130358983Y-53226046D01*
X130358981Y-53226045D01*
X130139830Y-53114382D01*
X129905910Y-53038376D01*
X129905908Y-53038375D01*
X129905906Y-53038375D01*
X129662984Y-52999900D01*
X129662979Y-52999900D01*
X129417021Y-52999900D01*
X129417016Y-52999900D01*
X129174093Y-53038375D01*
X128940167Y-53114383D01*
X128721019Y-53226044D01*
X128540914Y-53356897D01*
X128475107Y-53380376D01*
X128407053Y-53364550D01*
X128368762Y-53330889D01*
X128310046Y-53252454D01*
X128261907Y-53216417D01*
X128194835Y-53166206D01*
X128194828Y-53166202D01*
X128059982Y-53115908D01*
X128059983Y-53115908D01*
X128000383Y-53109501D01*
X128000381Y-53109500D01*
X128000373Y-53109500D01*
X128000364Y-53109500D01*
X125999629Y-53109500D01*
X125999623Y-53109501D01*
X125940016Y-53115908D01*
X125805171Y-53166202D01*
X125805164Y-53166206D01*
X125689955Y-53252452D01*
X125689952Y-53252455D01*
X125603706Y-53367664D01*
X125603702Y-53367671D01*
X125553408Y-53502517D01*
X125547001Y-53562116D01*
X125547000Y-53562135D01*
X121703780Y-53562135D01*
X121596242Y-53454597D01*
X121411276Y-53320211D01*
X121207568Y-53216417D01*
X120990124Y-53145765D01*
X120904000Y-53132124D01*
X120904000Y-54121561D01*
X120862292Y-54097482D01*
X120722409Y-54060000D01*
X120577591Y-54060000D01*
X120437708Y-54097482D01*
X120396000Y-54121561D01*
X120396000Y-53132124D01*
X120395999Y-53132124D01*
X120309875Y-53145765D01*
X120092431Y-53216417D01*
X119888723Y-53320211D01*
X119703757Y-53454597D01*
X119538650Y-53619705D01*
X119537766Y-53618821D01*
X119484097Y-53653851D01*
X119414229Y-53654345D01*
X119355185Y-53616988D01*
X119348003Y-53608009D01*
X119301890Y-53544540D01*
X119301886Y-53544535D01*
X119127960Y-53370609D01*
X118928984Y-53226047D01*
X118928983Y-53226046D01*
X118928981Y-53226045D01*
X118709830Y-53114382D01*
X118475910Y-53038376D01*
X118475908Y-53038375D01*
X118475906Y-53038375D01*
X118232984Y-52999900D01*
X118232979Y-52999900D01*
X117987021Y-52999900D01*
X117987016Y-52999900D01*
X117744093Y-53038375D01*
X117510167Y-53114383D01*
X117291019Y-53226044D01*
X117110914Y-53356897D01*
X117045107Y-53380376D01*
X116977053Y-53364550D01*
X116938762Y-53330889D01*
X116880046Y-53252454D01*
X116831907Y-53216417D01*
X116764835Y-53166206D01*
X116764828Y-53166202D01*
X116629982Y-53115908D01*
X116629983Y-53115908D01*
X116570383Y-53109501D01*
X116570381Y-53109500D01*
X116570373Y-53109500D01*
X116570364Y-53109500D01*
X114569629Y-53109500D01*
X114569623Y-53109501D01*
X114510016Y-53115908D01*
X114375171Y-53166202D01*
X114375164Y-53166206D01*
X114259955Y-53252452D01*
X114259952Y-53252455D01*
X114173706Y-53367664D01*
X114173702Y-53367671D01*
X114123408Y-53502517D01*
X114117001Y-53562116D01*
X114117000Y-53562135D01*
X110273780Y-53562135D01*
X110166242Y-53454597D01*
X109981276Y-53320211D01*
X109777568Y-53216417D01*
X109560124Y-53145765D01*
X109474000Y-53132124D01*
X109474000Y-54121561D01*
X109432292Y-54097482D01*
X109292409Y-54060000D01*
X109147591Y-54060000D01*
X109007708Y-54097482D01*
X108966000Y-54121561D01*
X108966000Y-53132124D01*
X108965999Y-53132124D01*
X108879875Y-53145765D01*
X108662431Y-53216417D01*
X108458723Y-53320211D01*
X108273757Y-53454597D01*
X108108650Y-53619705D01*
X108107766Y-53618821D01*
X108054097Y-53653851D01*
X107984229Y-53654345D01*
X107925185Y-53616988D01*
X107918003Y-53608009D01*
X107871890Y-53544540D01*
X107871886Y-53544535D01*
X107697960Y-53370609D01*
X107498984Y-53226047D01*
X107498983Y-53226046D01*
X107498981Y-53226045D01*
X107279830Y-53114382D01*
X107045910Y-53038376D01*
X107045908Y-53038375D01*
X107045906Y-53038375D01*
X106802984Y-52999900D01*
X106802979Y-52999900D01*
X106557021Y-52999900D01*
X106557016Y-52999900D01*
X106314093Y-53038375D01*
X106080167Y-53114383D01*
X105861019Y-53226044D01*
X105680914Y-53356897D01*
X105615107Y-53380376D01*
X105547053Y-53364550D01*
X105508762Y-53330889D01*
X105450046Y-53252454D01*
X105401907Y-53216417D01*
X105334835Y-53166206D01*
X105334828Y-53166202D01*
X105199982Y-53115908D01*
X105199983Y-53115908D01*
X105140383Y-53109501D01*
X105140381Y-53109500D01*
X105140373Y-53109500D01*
X105140364Y-53109500D01*
X103139629Y-53109500D01*
X103139623Y-53109501D01*
X103080016Y-53115908D01*
X102945171Y-53166202D01*
X102945164Y-53166206D01*
X102829955Y-53252452D01*
X102829952Y-53252455D01*
X102743706Y-53367664D01*
X102743702Y-53367671D01*
X102693408Y-53502517D01*
X102687001Y-53562116D01*
X102687000Y-53562135D01*
X98843780Y-53562135D01*
X98736242Y-53454597D01*
X98551276Y-53320211D01*
X98347568Y-53216417D01*
X98130124Y-53145765D01*
X98044000Y-53132124D01*
X98044000Y-54121561D01*
X98002292Y-54097482D01*
X97862409Y-54060000D01*
X97717591Y-54060000D01*
X97577708Y-54097482D01*
X97536000Y-54121561D01*
X97536000Y-53132124D01*
X97535999Y-53132124D01*
X97449875Y-53145765D01*
X97232431Y-53216417D01*
X97028723Y-53320211D01*
X96843757Y-53454597D01*
X96678650Y-53619705D01*
X96677766Y-53618821D01*
X96624097Y-53653851D01*
X96554229Y-53654345D01*
X96495185Y-53616988D01*
X96488003Y-53608009D01*
X96441890Y-53544540D01*
X96441886Y-53544535D01*
X96267960Y-53370609D01*
X96068984Y-53226047D01*
X96068983Y-53226046D01*
X96068981Y-53226045D01*
X95849830Y-53114382D01*
X95615910Y-53038376D01*
X95615908Y-53038375D01*
X95615906Y-53038375D01*
X95372984Y-52999900D01*
X95372979Y-52999900D01*
X95127021Y-52999900D01*
X95127016Y-52999900D01*
X94884093Y-53038375D01*
X94650167Y-53114383D01*
X94431019Y-53226044D01*
X94250914Y-53356897D01*
X94185107Y-53380376D01*
X94117053Y-53364550D01*
X94078762Y-53330889D01*
X94020046Y-53252454D01*
X93971907Y-53216417D01*
X93904835Y-53166206D01*
X93904828Y-53166202D01*
X93769982Y-53115908D01*
X93769983Y-53115908D01*
X93710383Y-53109501D01*
X93710381Y-53109500D01*
X93710373Y-53109500D01*
X93710364Y-53109500D01*
X91709629Y-53109500D01*
X91709623Y-53109501D01*
X91650016Y-53115908D01*
X91515171Y-53166202D01*
X91515164Y-53166206D01*
X91399955Y-53252452D01*
X91399952Y-53252455D01*
X91313706Y-53367664D01*
X91313702Y-53367671D01*
X91263408Y-53502517D01*
X91257001Y-53562116D01*
X91257000Y-53562135D01*
X90639500Y-53562135D01*
X90639500Y-50262040D01*
X90648144Y-50232599D01*
X90654668Y-50202613D01*
X90658422Y-50197597D01*
X90659185Y-50195001D01*
X90675815Y-50174363D01*
X90843760Y-50006417D01*
X90905083Y-49972933D01*
X90931441Y-49970099D01*
X92601602Y-49970099D01*
X92601612Y-49970099D01*
X92636199Y-49967378D01*
X92784226Y-49924372D01*
X92916907Y-49845905D01*
X93025905Y-49736907D01*
X93104372Y-49604226D01*
X93147378Y-49456199D01*
X93150100Y-49421613D01*
X93150099Y-47751441D01*
X93169784Y-47684403D01*
X93186418Y-47663761D01*
X93654361Y-47195819D01*
X93715684Y-47162334D01*
X93742042Y-47159500D01*
X100045946Y-47159500D01*
X100112985Y-47179185D01*
X100158740Y-47231989D01*
X100168684Y-47301147D01*
X100153333Y-47345500D01*
X100062970Y-47502011D01*
X100062965Y-47502022D01*
X99977183Y-47709117D01*
X99977180Y-47709127D01*
X99963100Y-47761677D01*
X99919162Y-47925657D01*
X99919160Y-47925668D01*
X99889900Y-48147906D01*
X99889900Y-48372093D01*
X99906570Y-48498707D01*
X99919161Y-48594340D01*
X99919162Y-48594342D01*
X99977180Y-48810872D01*
X99977183Y-48810882D01*
X100062965Y-49017977D01*
X100062970Y-49017988D01*
X100175048Y-49212111D01*
X100175059Y-49212127D01*
X100311518Y-49389964D01*
X100311524Y-49389971D01*
X100470028Y-49548475D01*
X100470035Y-49548481D01*
X100541862Y-49603596D01*
X100647881Y-49684947D01*
X100647888Y-49684951D01*
X100842011Y-49797029D01*
X100842016Y-49797031D01*
X100842019Y-49797033D01*
X101049127Y-49882820D01*
X101265660Y-49940839D01*
X101467239Y-49967378D01*
X101487898Y-49970098D01*
X101487914Y-49970100D01*
X101487921Y-49970100D01*
X101712079Y-49970100D01*
X101712086Y-49970100D01*
X101934340Y-49940839D01*
X102150873Y-49882820D01*
X102357981Y-49797033D01*
X102552119Y-49684947D01*
X102729966Y-49548480D01*
X102888480Y-49389966D01*
X103024947Y-49212119D01*
X103137033Y-49017981D01*
X103222820Y-48810873D01*
X103280839Y-48594340D01*
X103310100Y-48372086D01*
X103310100Y-48147914D01*
X103280839Y-47925660D01*
X103222820Y-47709127D01*
X103137033Y-47502019D01*
X103109634Y-47454564D01*
X103093162Y-47386665D01*
X103116014Y-47320638D01*
X103170935Y-47277447D01*
X103240488Y-47270805D01*
X103302591Y-47302820D01*
X103304703Y-47304883D01*
X103663581Y-47663761D01*
X103697066Y-47725084D01*
X103699900Y-47751442D01*
X103699900Y-49421601D01*
X103699901Y-49421623D01*
X103702622Y-49456200D01*
X103745626Y-49604221D01*
X103745627Y-49604224D01*
X103824093Y-49736904D01*
X103824099Y-49736912D01*
X103933087Y-49845900D01*
X103933091Y-49845903D01*
X103933093Y-49845905D01*
X104065774Y-49924372D01*
X104090302Y-49931498D01*
X104213796Y-49967377D01*
X104213799Y-49967377D01*
X104213801Y-49967378D01*
X104248387Y-49970100D01*
X105918557Y-49970099D01*
X105985596Y-49989784D01*
X106006238Y-50006418D01*
X107910347Y-51910528D01*
X107910351Y-51910531D01*
X108043551Y-51999533D01*
X108043564Y-51999540D01*
X108191564Y-52060843D01*
X108191569Y-52060845D01*
X108191573Y-52060845D01*
X108191574Y-52060846D01*
X108348694Y-52092100D01*
X108348697Y-52092100D01*
X118981305Y-52092100D01*
X119087013Y-52071072D01*
X119138431Y-52060845D01*
X119286442Y-51999537D01*
X119419649Y-51910531D01*
X120011731Y-51318449D01*
X120100737Y-51185242D01*
X120162045Y-51037231D01*
X120176313Y-50965500D01*
X120193300Y-50880103D01*
X120193300Y-50094099D01*
X120212985Y-50027060D01*
X120265789Y-49981305D01*
X120317300Y-49970099D01*
X120541602Y-49970099D01*
X120541612Y-49970099D01*
X120576199Y-49967378D01*
X120724226Y-49924372D01*
X120856907Y-49845905D01*
X120965905Y-49736907D01*
X121044372Y-49604226D01*
X121087378Y-49456199D01*
X121090100Y-49421613D01*
X121090099Y-47098388D01*
X121087378Y-47063801D01*
X121044372Y-46915774D01*
X120965905Y-46783093D01*
X120965903Y-46783091D01*
X120965900Y-46783087D01*
X120856912Y-46674099D01*
X120856904Y-46674093D01*
X120724224Y-46595627D01*
X120724221Y-46595626D01*
X120576203Y-46552622D01*
X120576197Y-46552621D01*
X120544566Y-46550132D01*
X120541613Y-46549900D01*
X120541612Y-46549900D01*
X118218398Y-46549900D01*
X118218376Y-46549901D01*
X118183799Y-46552622D01*
X118035778Y-46595626D01*
X118035775Y-46595627D01*
X117903095Y-46674093D01*
X117903087Y-46674099D01*
X117794099Y-46783087D01*
X117794093Y-46783095D01*
X117715627Y-46915775D01*
X117715626Y-46915778D01*
X117672622Y-47063796D01*
X117672621Y-47063802D01*
X117669900Y-47098381D01*
X117669900Y-49421601D01*
X117669901Y-49421623D01*
X117672622Y-49456200D01*
X117715626Y-49604221D01*
X117715627Y-49604224D01*
X117794093Y-49736904D01*
X117794099Y-49736912D01*
X117903087Y-49845900D01*
X117903091Y-49845903D01*
X117903093Y-49845905D01*
X118035774Y-49924372D01*
X118060302Y-49931498D01*
X118183796Y-49967377D01*
X118183799Y-49967377D01*
X118183801Y-49967378D01*
X118218387Y-49970100D01*
X118442700Y-49970099D01*
X118451385Y-49972649D01*
X118460347Y-49971361D01*
X118484384Y-49982338D01*
X118509739Y-49989783D01*
X118515667Y-49996625D01*
X118523903Y-50000386D01*
X118538189Y-50022617D01*
X118555494Y-50042587D01*
X118557781Y-50053102D01*
X118561677Y-50059164D01*
X118566700Y-50094099D01*
X118566700Y-50341500D01*
X118547015Y-50408539D01*
X118494211Y-50454294D01*
X118442700Y-50465500D01*
X113937504Y-50465500D01*
X113870465Y-50445815D01*
X113824710Y-50393011D01*
X113814766Y-50323853D01*
X113815887Y-50317309D01*
X113830499Y-50243846D01*
X113830500Y-50243844D01*
X113830500Y-50086155D01*
X113830499Y-50086153D01*
X113799737Y-49931503D01*
X113796783Y-49924372D01*
X113739397Y-49785827D01*
X113739390Y-49785814D01*
X113652998Y-49656519D01*
X113632120Y-49589841D01*
X113632100Y-49587628D01*
X113632100Y-48533642D01*
X113651785Y-48466603D01*
X113704589Y-48420848D01*
X113773747Y-48410904D01*
X113837303Y-48439929D01*
X113875077Y-48498707D01*
X113879038Y-48517453D01*
X113889161Y-48594340D01*
X113889162Y-48594342D01*
X113947180Y-48810872D01*
X113947183Y-48810882D01*
X114032965Y-49017977D01*
X114032970Y-49017988D01*
X114145048Y-49212111D01*
X114145059Y-49212127D01*
X114281518Y-49389964D01*
X114281524Y-49389971D01*
X114440028Y-49548475D01*
X114440035Y-49548481D01*
X114511862Y-49603596D01*
X114617881Y-49684947D01*
X114617888Y-49684951D01*
X114812011Y-49797029D01*
X114812016Y-49797031D01*
X114812019Y-49797033D01*
X115019127Y-49882820D01*
X115235660Y-49940839D01*
X115437239Y-49967378D01*
X115457898Y-49970098D01*
X115457914Y-49970100D01*
X115457921Y-49970100D01*
X115682079Y-49970100D01*
X115682086Y-49970100D01*
X115904340Y-49940839D01*
X116120873Y-49882820D01*
X116327981Y-49797033D01*
X116522119Y-49684947D01*
X116699966Y-49548480D01*
X116858480Y-49389966D01*
X116994947Y-49212119D01*
X117107033Y-49017981D01*
X117192820Y-48810873D01*
X117250839Y-48594340D01*
X117280100Y-48372086D01*
X117280100Y-48147914D01*
X117250839Y-47925660D01*
X117192820Y-47709127D01*
X117107033Y-47502019D01*
X117107031Y-47502016D01*
X117107029Y-47502011D01*
X116994951Y-47307888D01*
X116994947Y-47307881D01*
X116858480Y-47130034D01*
X116858475Y-47130028D01*
X116699971Y-46971524D01*
X116699964Y-46971518D01*
X116522127Y-46835059D01*
X116522125Y-46835057D01*
X116522119Y-46835053D01*
X116522114Y-46835050D01*
X116522111Y-46835048D01*
X116327988Y-46722970D01*
X116327977Y-46722965D01*
X116120882Y-46637183D01*
X116120875Y-46637181D01*
X116120873Y-46637180D01*
X115904340Y-46579161D01*
X115867193Y-46574270D01*
X115682093Y-46549900D01*
X115682086Y-46549900D01*
X115457914Y-46549900D01*
X115457906Y-46549900D01*
X115246362Y-46577751D01*
X115235660Y-46579161D01*
X115158663Y-46599792D01*
X115019127Y-46637180D01*
X115019117Y-46637183D01*
X114812022Y-46722965D01*
X114812011Y-46722970D01*
X114617888Y-46835048D01*
X114617872Y-46835059D01*
X114440035Y-46971518D01*
X114440028Y-46971524D01*
X114281524Y-47130028D01*
X114281518Y-47130035D01*
X114145059Y-47307872D01*
X114145048Y-47307888D01*
X114032970Y-47502011D01*
X114032965Y-47502022D01*
X113947183Y-47709117D01*
X113947180Y-47709127D01*
X113889161Y-47925660D01*
X113885563Y-47952993D01*
X113879039Y-48002543D01*
X113850772Y-48066439D01*
X113792448Y-48104910D01*
X113722583Y-48105741D01*
X113663360Y-48068669D01*
X113633581Y-48005463D01*
X113632100Y-47986357D01*
X113632100Y-46020759D01*
X113651785Y-45953720D01*
X113668414Y-45933083D01*
X117627186Y-41974310D01*
X117688507Y-41940827D01*
X117753181Y-41944061D01*
X117793757Y-41957246D01*
X118003713Y-41990500D01*
X118003714Y-41990500D01*
X118216286Y-41990500D01*
X118216287Y-41990500D01*
X118426243Y-41957246D01*
X118628412Y-41891557D01*
X118817816Y-41795051D01*
X118901538Y-41734224D01*
X118989786Y-41670109D01*
X118989788Y-41670106D01*
X118989792Y-41670104D01*
X119140104Y-41519792D01*
X119140106Y-41519788D01*
X119140109Y-41519786D01*
X119265048Y-41347820D01*
X119265047Y-41347820D01*
X119265051Y-41347816D01*
X119269514Y-41339054D01*
X119317488Y-41288259D01*
X119385308Y-41271463D01*
X119451444Y-41293999D01*
X119490486Y-41339056D01*
X119494951Y-41347820D01*
X119619890Y-41519786D01*
X119770213Y-41670109D01*
X119942179Y-41795048D01*
X119942181Y-41795049D01*
X119942184Y-41795051D01*
X120131588Y-41891557D01*
X120333757Y-41957246D01*
X120543713Y-41990500D01*
X120543714Y-41990500D01*
X120756286Y-41990500D01*
X120756287Y-41990500D01*
X120966243Y-41957246D01*
X121006815Y-41944062D01*
X121076654Y-41942066D01*
X121132814Y-41974312D01*
X122488981Y-43330479D01*
X122522466Y-43391802D01*
X122525300Y-43418160D01*
X122525300Y-48115347D01*
X122534028Y-48147920D01*
X122566333Y-48268482D01*
X122584565Y-48300060D01*
X122607684Y-48340103D01*
X122645599Y-48405776D01*
X123855804Y-49615981D01*
X123889289Y-49677304D01*
X123889740Y-49679470D01*
X123920078Y-49831987D01*
X123920081Y-49831997D01*
X123980419Y-49977668D01*
X123980426Y-49977681D01*
X124068027Y-50108784D01*
X124068030Y-50108788D01*
X124179524Y-50220282D01*
X124179528Y-50220285D01*
X124310631Y-50307886D01*
X124310644Y-50307893D01*
X124391780Y-50341500D01*
X124456320Y-50368233D01*
X124580887Y-50393011D01*
X124610970Y-50398995D01*
X124610973Y-50398996D01*
X124610975Y-50398996D01*
X124768661Y-50398996D01*
X124768662Y-50398995D01*
X124923314Y-50368233D01*
X125068996Y-50307890D01*
X125200106Y-50220285D01*
X125311606Y-50108785D01*
X125399211Y-49977675D01*
X125402350Y-49970098D01*
X125421290Y-49924372D01*
X125459554Y-49831993D01*
X125490317Y-49677338D01*
X125490317Y-49519654D01*
X125490317Y-49519651D01*
X125490316Y-49519649D01*
X125479881Y-49467190D01*
X125459554Y-49364999D01*
X125425715Y-49283303D01*
X125399214Y-49219323D01*
X125399207Y-49219310D01*
X125311606Y-49088207D01*
X125311603Y-49088203D01*
X125200109Y-48976709D01*
X125200105Y-48976706D01*
X125069002Y-48889105D01*
X125068989Y-48889098D01*
X124923318Y-48828760D01*
X124923308Y-48828757D01*
X124770791Y-48798419D01*
X124708880Y-48766034D01*
X124707302Y-48764483D01*
X124090725Y-48147906D01*
X127829900Y-48147906D01*
X127829900Y-48372093D01*
X127846570Y-48498707D01*
X127859161Y-48594340D01*
X127859162Y-48594342D01*
X127917180Y-48810872D01*
X127917183Y-48810882D01*
X128002965Y-49017977D01*
X128002970Y-49017988D01*
X128115048Y-49212111D01*
X128115059Y-49212127D01*
X128251518Y-49389964D01*
X128251524Y-49389971D01*
X128410028Y-49548475D01*
X128410035Y-49548481D01*
X128481862Y-49603596D01*
X128587881Y-49684947D01*
X128587888Y-49684951D01*
X128782011Y-49797029D01*
X128782016Y-49797031D01*
X128782019Y-49797033D01*
X128989127Y-49882820D01*
X129205660Y-49940839D01*
X129407239Y-49967378D01*
X129427898Y-49970098D01*
X129427914Y-49970100D01*
X129427921Y-49970100D01*
X129652079Y-49970100D01*
X129652086Y-49970100D01*
X129874340Y-49940839D01*
X130090873Y-49882820D01*
X130297981Y-49797033D01*
X130492119Y-49684947D01*
X130669966Y-49548480D01*
X130828480Y-49389966D01*
X130964947Y-49212119D01*
X131077033Y-49017981D01*
X131162820Y-48810873D01*
X131220839Y-48594340D01*
X131250100Y-48372086D01*
X131250100Y-48147914D01*
X131220839Y-47925660D01*
X131162820Y-47709127D01*
X131077033Y-47502019D01*
X131077031Y-47502016D01*
X131077029Y-47502011D01*
X130964951Y-47307888D01*
X130964947Y-47307881D01*
X130828480Y-47130034D01*
X130828475Y-47130028D01*
X130669971Y-46971524D01*
X130669964Y-46971518D01*
X130492127Y-46835059D01*
X130492125Y-46835057D01*
X130492119Y-46835053D01*
X130492114Y-46835050D01*
X130492111Y-46835048D01*
X130297988Y-46722970D01*
X130297977Y-46722965D01*
X130090882Y-46637183D01*
X130090875Y-46637181D01*
X130090873Y-46637180D01*
X129874340Y-46579161D01*
X129837193Y-46574270D01*
X129652093Y-46549900D01*
X129652086Y-46549900D01*
X129427914Y-46549900D01*
X129427906Y-46549900D01*
X129216362Y-46577751D01*
X129205660Y-46579161D01*
X129128663Y-46599792D01*
X128989127Y-46637180D01*
X128989117Y-46637183D01*
X128782022Y-46722965D01*
X128782011Y-46722970D01*
X128587888Y-46835048D01*
X128587872Y-46835059D01*
X128410035Y-46971518D01*
X128410028Y-46971524D01*
X128251524Y-47130028D01*
X128251518Y-47130035D01*
X128115059Y-47307872D01*
X128115048Y-47307888D01*
X128002970Y-47502011D01*
X128002965Y-47502022D01*
X127917183Y-47709117D01*
X127917180Y-47709127D01*
X127903100Y-47761677D01*
X127859162Y-47925657D01*
X127859160Y-47925668D01*
X127829900Y-48147906D01*
X124090725Y-48147906D01*
X123765819Y-47823000D01*
X123732334Y-47761677D01*
X123729500Y-47735319D01*
X123729500Y-43038134D01*
X123729500Y-43038132D01*
X123688468Y-42884999D01*
X123638172Y-42797884D01*
X123609202Y-42747705D01*
X123609198Y-42747700D01*
X123063679Y-42202181D01*
X123030194Y-42140858D01*
X123035178Y-42071166D01*
X123077050Y-42015233D01*
X123142514Y-41990816D01*
X123151360Y-41990500D01*
X123296286Y-41990500D01*
X123296287Y-41990500D01*
X123506243Y-41957246D01*
X123546815Y-41944062D01*
X123616654Y-41942066D01*
X123672814Y-41974312D01*
X124270400Y-42571898D01*
X124382502Y-42684000D01*
X124519798Y-42763267D01*
X124672932Y-42804300D01*
X126805840Y-42804300D01*
X126872879Y-42823985D01*
X126893521Y-42840619D01*
X133918981Y-49866079D01*
X133952466Y-49927402D01*
X133955300Y-49953760D01*
X133955300Y-57383376D01*
X133935615Y-57450415D01*
X133882811Y-57496170D01*
X133813653Y-57506114D01*
X133792982Y-57501307D01*
X133654536Y-57456323D01*
X133519746Y-57434974D01*
X133452352Y-57424300D01*
X133247648Y-57424300D01*
X133223329Y-57428151D01*
X133045465Y-57456322D01*
X132850776Y-57519581D01*
X132668386Y-57612515D01*
X132502786Y-57732828D01*
X132358028Y-57877586D01*
X132237715Y-58043186D01*
X132144781Y-58225576D01*
X132081522Y-58420265D01*
X132049500Y-58622448D01*
X132049500Y-58827151D01*
X132081522Y-59029334D01*
X132144781Y-59224023D01*
X132192586Y-59317844D01*
X132222917Y-59377372D01*
X132237715Y-59406413D01*
X132358028Y-59572013D01*
X132502786Y-59716771D01*
X132624155Y-59804949D01*
X132668390Y-59837087D01*
X132764907Y-59886265D01*
X132850776Y-59930018D01*
X132850778Y-59930018D01*
X132850781Y-59930020D01*
X132933922Y-59957034D01*
X133045465Y-59993277D01*
X133146557Y-60009288D01*
X133247648Y-60025300D01*
X133247649Y-60025300D01*
X133452351Y-60025300D01*
X133452352Y-60025300D01*
X133654534Y-59993277D01*
X133792983Y-59948291D01*
X133862822Y-59946297D01*
X133922655Y-59982377D01*
X133953484Y-60045077D01*
X133955300Y-60066223D01*
X133955300Y-60569439D01*
X133946655Y-60598879D01*
X133940132Y-60628866D01*
X133936377Y-60633881D01*
X133935615Y-60636478D01*
X133918981Y-60657120D01*
X133793134Y-60782967D01*
X133731811Y-60816452D01*
X133667135Y-60813217D01*
X133654535Y-60809123D01*
X133489394Y-60782967D01*
X133452352Y-60777100D01*
X133247648Y-60777100D01*
X133223329Y-60780951D01*
X133045465Y-60809122D01*
X132850776Y-60872381D01*
X132668386Y-60965315D01*
X132502786Y-61085628D01*
X132358028Y-61230386D01*
X132237715Y-61395986D01*
X132144781Y-61578376D01*
X132081522Y-61773065D01*
X132049500Y-61975248D01*
X132049500Y-62179951D01*
X132081522Y-62382134D01*
X132144781Y-62576823D01*
X132179026Y-62644031D01*
X132237577Y-62758944D01*
X132237715Y-62759213D01*
X132358028Y-62924813D01*
X132502786Y-63069571D01*
X132657749Y-63182156D01*
X132668390Y-63189887D01*
X132740942Y-63226854D01*
X132850776Y-63282818D01*
X132850778Y-63282818D01*
X132850781Y-63282820D01*
X132927523Y-63307755D01*
X133045465Y-63346077D01*
X133071623Y-63350220D01*
X133247648Y-63378100D01*
X133247649Y-63378100D01*
X133452351Y-63378100D01*
X133452352Y-63378100D01*
X133654534Y-63346077D01*
X133849219Y-63282820D01*
X134031610Y-63189887D01*
X134162252Y-63094971D01*
X134197213Y-63069571D01*
X134197215Y-63069568D01*
X134197219Y-63069566D01*
X134341966Y-62924819D01*
X134341968Y-62924815D01*
X134341971Y-62924813D01*
X134413508Y-62826349D01*
X134462287Y-62759210D01*
X134555220Y-62576819D01*
X134618477Y-62382134D01*
X134650500Y-62179952D01*
X134650500Y-61975248D01*
X134618477Y-61773066D01*
X134614381Y-61760462D01*
X134612387Y-61690623D01*
X134644632Y-61634465D01*
X134800685Y-61478412D01*
X135039200Y-61239898D01*
X135118467Y-61102602D01*
X135159500Y-60949468D01*
X135159500Y-60853713D01*
X139619500Y-60853713D01*
X139619500Y-61066286D01*
X139646997Y-61239899D01*
X139652754Y-61276243D01*
X139713645Y-61463646D01*
X139718444Y-61478414D01*
X139814951Y-61667820D01*
X139939890Y-61839786D01*
X140090213Y-61990109D01*
X140262179Y-62115048D01*
X140262181Y-62115049D01*
X140262184Y-62115051D01*
X140451588Y-62211557D01*
X140653757Y-62277246D01*
X140863713Y-62310500D01*
X140863714Y-62310500D01*
X141076286Y-62310500D01*
X141076287Y-62310500D01*
X141286243Y-62277246D01*
X141488412Y-62211557D01*
X141677816Y-62115051D01*
X141766885Y-62050339D01*
X141849786Y-61990109D01*
X141849788Y-61990106D01*
X141849792Y-61990104D01*
X142000104Y-61839792D01*
X142000106Y-61839788D01*
X142000109Y-61839786D01*
X142125048Y-61667820D01*
X142125047Y-61667820D01*
X142125051Y-61667816D01*
X142221557Y-61478412D01*
X142287246Y-61276243D01*
X142320500Y-61066287D01*
X142320500Y-60853713D01*
X142287246Y-60643757D01*
X142221557Y-60441588D01*
X142125051Y-60252184D01*
X142125049Y-60252181D01*
X142125048Y-60252179D01*
X142000109Y-60080213D01*
X141886181Y-59966285D01*
X141852696Y-59904962D01*
X141857680Y-59835270D01*
X141899552Y-59779337D01*
X141930529Y-59762422D01*
X142062086Y-59713354D01*
X142062093Y-59713350D01*
X142177187Y-59627190D01*
X142177190Y-59627187D01*
X142263350Y-59512093D01*
X142263354Y-59512086D01*
X142313596Y-59377379D01*
X142313598Y-59377372D01*
X142319999Y-59317844D01*
X142320000Y-59317827D01*
X142320000Y-58674000D01*
X141400703Y-58674000D01*
X141435925Y-58612993D01*
X141470000Y-58485826D01*
X141470000Y-58354174D01*
X141435925Y-58227007D01*
X141400703Y-58166000D01*
X142320000Y-58166000D01*
X142320000Y-57522172D01*
X142319999Y-57522155D01*
X142313598Y-57462627D01*
X142313596Y-57462620D01*
X142263354Y-57327913D01*
X142263350Y-57327906D01*
X142177190Y-57212812D01*
X142177187Y-57212809D01*
X142062093Y-57126649D01*
X142062086Y-57126645D01*
X141927379Y-57076403D01*
X141927372Y-57076401D01*
X141867844Y-57070000D01*
X141224000Y-57070000D01*
X141224000Y-57989297D01*
X141162993Y-57954075D01*
X141035826Y-57920000D01*
X140904174Y-57920000D01*
X140777007Y-57954075D01*
X140716000Y-57989297D01*
X140716000Y-57070000D01*
X140072155Y-57070000D01*
X140012627Y-57076401D01*
X140012620Y-57076403D01*
X139877913Y-57126645D01*
X139877906Y-57126649D01*
X139762812Y-57212809D01*
X139762809Y-57212812D01*
X139676649Y-57327906D01*
X139676645Y-57327913D01*
X139626403Y-57462620D01*
X139626401Y-57462627D01*
X139620000Y-57522155D01*
X139620000Y-58166000D01*
X140539297Y-58166000D01*
X140504075Y-58227007D01*
X140470000Y-58354174D01*
X140470000Y-58485826D01*
X140504075Y-58612993D01*
X140539297Y-58674000D01*
X139620000Y-58674000D01*
X139620000Y-59317844D01*
X139626401Y-59377372D01*
X139626403Y-59377379D01*
X139676645Y-59512086D01*
X139676649Y-59512093D01*
X139762809Y-59627187D01*
X139762812Y-59627190D01*
X139877906Y-59713350D01*
X139877913Y-59713354D01*
X140009470Y-59762422D01*
X140065404Y-59804293D01*
X140089821Y-59869758D01*
X140074969Y-59938031D01*
X140053819Y-59966285D01*
X139939889Y-60080215D01*
X139814951Y-60252179D01*
X139718444Y-60441585D01*
X139652753Y-60643760D01*
X139619500Y-60853713D01*
X135159500Y-60853713D01*
X135159500Y-60790932D01*
X135159500Y-58307906D01*
X135449900Y-58307906D01*
X135449900Y-58532093D01*
X135468584Y-58674000D01*
X135479161Y-58754340D01*
X135514419Y-58885925D01*
X135537180Y-58970872D01*
X135537183Y-58970882D01*
X135622965Y-59177977D01*
X135622970Y-59177988D01*
X135735048Y-59372111D01*
X135735059Y-59372127D01*
X135871518Y-59549964D01*
X135871524Y-59549971D01*
X136030028Y-59708475D01*
X136030035Y-59708481D01*
X136154900Y-59804293D01*
X136207881Y-59844947D01*
X136207888Y-59844951D01*
X136402011Y-59957029D01*
X136402016Y-59957031D01*
X136402019Y-59957033D01*
X136609127Y-60042820D01*
X136825660Y-60100839D01*
X137047914Y-60130100D01*
X137047921Y-60130100D01*
X137272079Y-60130100D01*
X137272086Y-60130100D01*
X137494340Y-60100839D01*
X137710873Y-60042820D01*
X137917981Y-59957033D01*
X138112119Y-59844947D01*
X138289966Y-59708480D01*
X138448480Y-59549966D01*
X138584947Y-59372119D01*
X138697033Y-59177981D01*
X138782820Y-58970873D01*
X138840839Y-58754340D01*
X138870100Y-58532086D01*
X138870100Y-58307914D01*
X138840839Y-58085660D01*
X138782820Y-57869127D01*
X138697033Y-57662019D01*
X138697031Y-57662016D01*
X138697029Y-57662011D01*
X138650172Y-57580853D01*
X138650171Y-57580852D01*
X138626459Y-57539782D01*
X138584947Y-57467881D01*
X138448480Y-57290034D01*
X138448475Y-57290028D01*
X138289971Y-57131524D01*
X138289964Y-57131518D01*
X138112127Y-56995059D01*
X138112125Y-56995057D01*
X138112119Y-56995053D01*
X138112114Y-56995050D01*
X138112111Y-56995048D01*
X137917988Y-56882970D01*
X137917977Y-56882965D01*
X137710882Y-56797183D01*
X137710875Y-56797181D01*
X137710873Y-56797180D01*
X137494340Y-56739161D01*
X137457193Y-56734270D01*
X137272093Y-56709900D01*
X137272086Y-56709900D01*
X137047914Y-56709900D01*
X137047906Y-56709900D01*
X136836362Y-56737751D01*
X136825660Y-56739161D01*
X136609127Y-56797180D01*
X136609117Y-56797183D01*
X136402022Y-56882965D01*
X136402011Y-56882970D01*
X136207888Y-56995048D01*
X136207872Y-56995059D01*
X136030035Y-57131518D01*
X136030028Y-57131524D01*
X135871524Y-57290028D01*
X135871518Y-57290035D01*
X135735059Y-57467872D01*
X135735048Y-57467888D01*
X135622970Y-57662011D01*
X135622965Y-57662022D01*
X135537183Y-57869117D01*
X135537180Y-57869127D01*
X135479162Y-58085657D01*
X135479160Y-58085668D01*
X135449900Y-58307906D01*
X135159500Y-58307906D01*
X135159500Y-54503713D01*
X139619500Y-54503713D01*
X139619500Y-54716286D01*
X139642895Y-54864000D01*
X139652754Y-54926243D01*
X139675947Y-54997624D01*
X139718444Y-55128414D01*
X139814951Y-55317820D01*
X139939890Y-55489786D01*
X140090213Y-55640109D01*
X140262179Y-55765048D01*
X140262181Y-55765049D01*
X140262184Y-55765051D01*
X140451588Y-55861557D01*
X140653757Y-55927246D01*
X140863713Y-55960500D01*
X140863714Y-55960500D01*
X141076286Y-55960500D01*
X141076287Y-55960500D01*
X141286243Y-55927246D01*
X141488412Y-55861557D01*
X141677816Y-55765051D01*
X141743288Y-55717483D01*
X141849786Y-55640109D01*
X141849788Y-55640106D01*
X141849792Y-55640104D01*
X142000104Y-55489792D01*
X142000106Y-55489788D01*
X142000109Y-55489786D01*
X142125048Y-55317820D01*
X142125047Y-55317820D01*
X142125051Y-55317816D01*
X142221557Y-55128412D01*
X142287246Y-54926243D01*
X142320500Y-54716287D01*
X142320500Y-54503713D01*
X142287246Y-54293757D01*
X142221557Y-54091588D01*
X142125051Y-53902184D01*
X142125049Y-53902181D01*
X142125048Y-53902179D01*
X142000109Y-53730213D01*
X141886181Y-53616285D01*
X141852696Y-53554962D01*
X141857680Y-53485270D01*
X141899552Y-53429337D01*
X141930529Y-53412422D01*
X142062086Y-53363354D01*
X142062093Y-53363350D01*
X142177187Y-53277190D01*
X142177190Y-53277187D01*
X142263350Y-53162093D01*
X142263354Y-53162086D01*
X142313596Y-53027379D01*
X142313598Y-53027372D01*
X142319999Y-52967844D01*
X142320000Y-52967827D01*
X142320000Y-52324000D01*
X141400703Y-52324000D01*
X141435925Y-52262993D01*
X141470000Y-52135826D01*
X141470000Y-52004174D01*
X141435925Y-51877007D01*
X141400703Y-51816000D01*
X142320000Y-51816000D01*
X142320000Y-51172172D01*
X142319999Y-51172155D01*
X142313598Y-51112627D01*
X142313596Y-51112620D01*
X142263354Y-50977913D01*
X142263350Y-50977906D01*
X142177190Y-50862812D01*
X142177187Y-50862809D01*
X142062093Y-50776649D01*
X142062086Y-50776645D01*
X141927379Y-50726403D01*
X141927372Y-50726401D01*
X141867844Y-50720000D01*
X141224000Y-50720000D01*
X141224000Y-51639297D01*
X141162993Y-51604075D01*
X141035826Y-51570000D01*
X140904174Y-51570000D01*
X140777007Y-51604075D01*
X140716000Y-51639297D01*
X140716000Y-50720000D01*
X140072155Y-50720000D01*
X140012627Y-50726401D01*
X140012620Y-50726403D01*
X139877913Y-50776645D01*
X139877906Y-50776649D01*
X139762812Y-50862809D01*
X139762809Y-50862812D01*
X139676649Y-50977906D01*
X139676645Y-50977913D01*
X139626403Y-51112620D01*
X139626401Y-51112627D01*
X139620000Y-51172155D01*
X139620000Y-51816000D01*
X140539297Y-51816000D01*
X140504075Y-51877007D01*
X140470000Y-52004174D01*
X140470000Y-52135826D01*
X140504075Y-52262993D01*
X140539297Y-52324000D01*
X139620000Y-52324000D01*
X139620000Y-52967844D01*
X139626401Y-53027372D01*
X139626403Y-53027379D01*
X139676645Y-53162086D01*
X139676649Y-53162093D01*
X139762809Y-53277187D01*
X139762812Y-53277190D01*
X139877906Y-53363350D01*
X139877913Y-53363354D01*
X140009470Y-53412422D01*
X140065404Y-53454293D01*
X140089821Y-53519758D01*
X140074969Y-53588031D01*
X140053819Y-53616285D01*
X139939889Y-53730215D01*
X139814951Y-53902179D01*
X139718444Y-54091585D01*
X139652753Y-54293760D01*
X139619500Y-54503713D01*
X135159500Y-54503713D01*
X135159500Y-49573732D01*
X135118467Y-49420598D01*
X135039200Y-49283302D01*
X134927098Y-49171200D01*
X132854279Y-47098381D01*
X135449900Y-47098381D01*
X135449900Y-49421601D01*
X135449901Y-49421623D01*
X135452622Y-49456200D01*
X135495626Y-49604221D01*
X135495627Y-49604224D01*
X135574093Y-49736904D01*
X135574099Y-49736912D01*
X135683087Y-49845900D01*
X135683091Y-49845903D01*
X135683093Y-49845905D01*
X135815774Y-49924372D01*
X135840302Y-49931498D01*
X135963796Y-49967377D01*
X135963799Y-49967377D01*
X135963801Y-49967378D01*
X135998387Y-49970100D01*
X138321612Y-49970099D01*
X138356199Y-49967378D01*
X138504226Y-49924372D01*
X138636907Y-49845905D01*
X138745905Y-49736907D01*
X138824372Y-49604226D01*
X138867378Y-49456199D01*
X138870100Y-49421613D01*
X138870099Y-48194174D01*
X138870099Y-47098398D01*
X138870098Y-47098376D01*
X138867378Y-47063801D01*
X138824372Y-46915774D01*
X138745905Y-46783093D01*
X138745903Y-46783091D01*
X138745900Y-46783087D01*
X138636912Y-46674099D01*
X138636904Y-46674093D01*
X138504224Y-46595627D01*
X138504221Y-46595626D01*
X138356203Y-46552622D01*
X138356197Y-46552621D01*
X138324566Y-46550132D01*
X138321613Y-46549900D01*
X138321612Y-46549900D01*
X135998398Y-46549900D01*
X135998376Y-46549901D01*
X135963799Y-46552622D01*
X135815778Y-46595626D01*
X135815775Y-46595627D01*
X135683095Y-46674093D01*
X135683087Y-46674099D01*
X135574099Y-46783087D01*
X135574093Y-46783095D01*
X135495627Y-46915775D01*
X135495626Y-46915778D01*
X135452622Y-47063796D01*
X135452621Y-47063802D01*
X135449900Y-47098381D01*
X132854279Y-47098381D01*
X131369611Y-45613713D01*
X139619500Y-45613713D01*
X139619500Y-45826286D01*
X139652753Y-46036239D01*
X139718444Y-46238414D01*
X139814951Y-46427820D01*
X139939890Y-46599786D01*
X140053818Y-46713714D01*
X140087303Y-46775037D01*
X140082319Y-46844729D01*
X140040447Y-46900662D01*
X140009471Y-46917577D01*
X139877912Y-46966646D01*
X139877906Y-46966649D01*
X139762812Y-47052809D01*
X139762809Y-47052812D01*
X139676649Y-47167906D01*
X139676645Y-47167913D01*
X139626403Y-47302620D01*
X139626401Y-47302627D01*
X139620000Y-47362155D01*
X139620000Y-48006000D01*
X140539297Y-48006000D01*
X140504075Y-48067007D01*
X140470000Y-48194174D01*
X140470000Y-48325826D01*
X140504075Y-48452993D01*
X140539297Y-48514000D01*
X139620000Y-48514000D01*
X139620000Y-49157844D01*
X139626401Y-49217372D01*
X139626403Y-49217379D01*
X139676645Y-49352086D01*
X139676649Y-49352093D01*
X139762809Y-49467187D01*
X139762812Y-49467190D01*
X139877906Y-49553350D01*
X139877913Y-49553354D01*
X140012620Y-49603596D01*
X140012627Y-49603598D01*
X140072155Y-49609999D01*
X140072172Y-49610000D01*
X140716000Y-49610000D01*
X140716000Y-48690702D01*
X140777007Y-48725925D01*
X140904174Y-48760000D01*
X141035826Y-48760000D01*
X141162993Y-48725925D01*
X141224000Y-48690702D01*
X141224000Y-49610000D01*
X141867828Y-49610000D01*
X141867844Y-49609999D01*
X141927372Y-49603598D01*
X141927379Y-49603596D01*
X142062086Y-49553354D01*
X142062093Y-49553350D01*
X142177187Y-49467190D01*
X142177190Y-49467187D01*
X142263350Y-49352093D01*
X142263354Y-49352086D01*
X142313596Y-49217379D01*
X142313598Y-49217372D01*
X142319999Y-49157844D01*
X142320000Y-49157827D01*
X142320000Y-48514000D01*
X141400703Y-48514000D01*
X141435925Y-48452993D01*
X141470000Y-48325826D01*
X141470000Y-48194174D01*
X141435925Y-48067007D01*
X141400703Y-48006000D01*
X142320000Y-48006000D01*
X142320000Y-47362172D01*
X142319999Y-47362155D01*
X142313598Y-47302627D01*
X142313596Y-47302620D01*
X142263354Y-47167913D01*
X142263350Y-47167906D01*
X142177190Y-47052812D01*
X142177187Y-47052809D01*
X142062093Y-46966649D01*
X142062088Y-46966646D01*
X141930528Y-46917577D01*
X141874595Y-46875705D01*
X141850178Y-46810241D01*
X141865030Y-46741968D01*
X141886175Y-46713720D01*
X142000104Y-46599792D01*
X142015093Y-46579162D01*
X142125048Y-46427820D01*
X142125047Y-46427820D01*
X142125051Y-46427816D01*
X142221557Y-46238412D01*
X142287246Y-46036243D01*
X142320500Y-45826287D01*
X142320500Y-45613713D01*
X142287246Y-45403757D01*
X142221557Y-45201588D01*
X142125051Y-45012184D01*
X142125049Y-45012181D01*
X142125048Y-45012179D01*
X142000109Y-44840213D01*
X141849786Y-44689890D01*
X141677820Y-44564951D01*
X141488414Y-44468444D01*
X141488413Y-44468443D01*
X141488412Y-44468443D01*
X141286243Y-44402754D01*
X141286241Y-44402753D01*
X141286240Y-44402753D01*
X141124957Y-44377208D01*
X141076287Y-44369500D01*
X140863713Y-44369500D01*
X140815042Y-44377208D01*
X140653760Y-44402753D01*
X140451585Y-44468444D01*
X140262179Y-44564951D01*
X140090213Y-44689890D01*
X139939890Y-44840213D01*
X139814951Y-45012179D01*
X139718444Y-45201585D01*
X139652753Y-45403760D01*
X139619500Y-45613713D01*
X131369611Y-45613713D01*
X128022455Y-42266557D01*
X127988970Y-42205234D01*
X127993954Y-42135542D01*
X128035826Y-42079609D01*
X128075540Y-42059800D01*
X128094226Y-42054372D01*
X128226907Y-41975905D01*
X128335905Y-41866907D01*
X128414372Y-41734226D01*
X128425813Y-41694844D01*
X128463417Y-41635960D01*
X128526889Y-41606752D01*
X128596076Y-41616497D01*
X128632570Y-41641758D01*
X128660535Y-41669723D01*
X128660540Y-41669727D01*
X128832442Y-41794620D01*
X129021782Y-41891095D01*
X129223867Y-41956756D01*
X129286000Y-41966596D01*
X129286000Y-41070702D01*
X129347007Y-41105925D01*
X129474174Y-41140000D01*
X129605826Y-41140000D01*
X129732993Y-41105925D01*
X129794000Y-41070702D01*
X129794000Y-41966595D01*
X129856132Y-41956756D01*
X130058217Y-41891095D01*
X130247557Y-41794620D01*
X130419459Y-41669727D01*
X130419464Y-41669723D01*
X130569723Y-41519464D01*
X130569727Y-41519459D01*
X130694620Y-41347557D01*
X130791095Y-41158217D01*
X130856757Y-40956130D01*
X130856757Y-40956127D01*
X130866598Y-40894000D01*
X129970703Y-40894000D01*
X130005925Y-40832993D01*
X130040000Y-40705826D01*
X130040000Y-40574174D01*
X130005925Y-40447007D01*
X129970703Y-40386000D01*
X130866598Y-40386000D01*
X130856757Y-40323872D01*
X130856757Y-40323869D01*
X130791095Y-40121782D01*
X130694620Y-39932442D01*
X130606893Y-39811694D01*
X130606891Y-39811692D01*
X130569723Y-39760535D01*
X130551323Y-39742135D01*
X131999500Y-39742135D01*
X131999500Y-41537870D01*
X131999501Y-41537876D01*
X132005908Y-41597483D01*
X132056202Y-41732328D01*
X132056206Y-41732335D01*
X132142452Y-41847544D01*
X132142455Y-41847547D01*
X132257664Y-41933793D01*
X132257671Y-41933797D01*
X132392517Y-41984091D01*
X132392516Y-41984091D01*
X132399444Y-41984835D01*
X132452127Y-41990500D01*
X134247872Y-41990499D01*
X134307483Y-41984091D01*
X134442331Y-41933796D01*
X134557546Y-41847546D01*
X134643796Y-41732331D01*
X134692810Y-41600916D01*
X134734681Y-41544984D01*
X134800145Y-41520566D01*
X134868418Y-41535417D01*
X134896673Y-41556569D01*
X135010213Y-41670109D01*
X135182179Y-41795048D01*
X135182181Y-41795049D01*
X135182184Y-41795051D01*
X135371588Y-41891557D01*
X135573757Y-41957246D01*
X135783713Y-41990500D01*
X135783714Y-41990500D01*
X135996286Y-41990500D01*
X135996287Y-41990500D01*
X136206243Y-41957246D01*
X136408412Y-41891557D01*
X136597816Y-41795051D01*
X136681538Y-41734224D01*
X136769786Y-41670109D01*
X136769788Y-41670106D01*
X136769792Y-41670104D01*
X136920104Y-41519792D01*
X136920106Y-41519788D01*
X136920109Y-41519786D01*
X137045048Y-41347820D01*
X137045047Y-41347820D01*
X137045051Y-41347816D01*
X137049514Y-41339054D01*
X137097488Y-41288259D01*
X137165308Y-41271463D01*
X137231444Y-41293999D01*
X137270486Y-41339056D01*
X137274951Y-41347820D01*
X137399890Y-41519786D01*
X137550213Y-41670109D01*
X137722179Y-41795048D01*
X137722181Y-41795049D01*
X137722184Y-41795051D01*
X137911588Y-41891557D01*
X138113757Y-41957246D01*
X138323713Y-41990500D01*
X138323714Y-41990500D01*
X138536286Y-41990500D01*
X138536287Y-41990500D01*
X138746243Y-41957246D01*
X138948412Y-41891557D01*
X139137816Y-41795051D01*
X139221538Y-41734224D01*
X139309786Y-41670109D01*
X139309788Y-41670106D01*
X139309792Y-41670104D01*
X139460104Y-41519792D01*
X139460106Y-41519788D01*
X139460109Y-41519786D01*
X139585048Y-41347820D01*
X139585047Y-41347820D01*
X139585051Y-41347816D01*
X139589514Y-41339054D01*
X139637488Y-41288259D01*
X139705308Y-41271463D01*
X139771444Y-41293999D01*
X139810486Y-41339056D01*
X139814951Y-41347820D01*
X139939890Y-41519786D01*
X140090213Y-41670109D01*
X140262179Y-41795048D01*
X140262181Y-41795049D01*
X140262184Y-41795051D01*
X140451588Y-41891557D01*
X140653757Y-41957246D01*
X140863713Y-41990500D01*
X140863714Y-41990500D01*
X141076286Y-41990500D01*
X141076287Y-41990500D01*
X141286243Y-41957246D01*
X141488412Y-41891557D01*
X141677816Y-41795051D01*
X141761538Y-41734224D01*
X141849786Y-41670109D01*
X141849788Y-41670106D01*
X141849792Y-41670104D01*
X142000104Y-41519792D01*
X142000106Y-41519788D01*
X142000109Y-41519786D01*
X142125048Y-41347820D01*
X142125047Y-41347820D01*
X142125051Y-41347816D01*
X142221557Y-41158412D01*
X142287246Y-40956243D01*
X142320500Y-40746287D01*
X142320500Y-40533713D01*
X142287246Y-40323757D01*
X142221557Y-40121588D01*
X142125051Y-39932184D01*
X142125049Y-39932181D01*
X142125048Y-39932179D01*
X142000109Y-39760213D01*
X141849786Y-39609890D01*
X141677820Y-39484951D01*
X141488414Y-39388444D01*
X141488413Y-39388443D01*
X141488412Y-39388443D01*
X141286243Y-39322754D01*
X141286241Y-39322753D01*
X141286240Y-39322753D01*
X141124957Y-39297208D01*
X141076287Y-39289500D01*
X140863713Y-39289500D01*
X140815042Y-39297208D01*
X140653760Y-39322753D01*
X140451585Y-39388444D01*
X140262179Y-39484951D01*
X140090213Y-39609890D01*
X139939890Y-39760213D01*
X139814949Y-39932182D01*
X139810484Y-39940946D01*
X139762509Y-39991742D01*
X139694688Y-40008536D01*
X139628553Y-39985998D01*
X139589516Y-39940946D01*
X139585050Y-39932182D01*
X139460109Y-39760213D01*
X139309786Y-39609890D01*
X139137820Y-39484951D01*
X138948414Y-39388444D01*
X138948413Y-39388443D01*
X138948412Y-39388443D01*
X138746243Y-39322754D01*
X138746241Y-39322753D01*
X138746240Y-39322753D01*
X138584957Y-39297208D01*
X138536287Y-39289500D01*
X138323713Y-39289500D01*
X138275042Y-39297208D01*
X138113760Y-39322753D01*
X137911585Y-39388444D01*
X137722179Y-39484951D01*
X137550213Y-39609890D01*
X137399890Y-39760213D01*
X137274949Y-39932182D01*
X137270484Y-39940946D01*
X137222509Y-39991742D01*
X137154688Y-40008536D01*
X137088553Y-39985998D01*
X137049516Y-39940946D01*
X137045050Y-39932182D01*
X136920109Y-39760213D01*
X136769786Y-39609890D01*
X136597820Y-39484951D01*
X136408414Y-39388444D01*
X136408413Y-39388443D01*
X136408412Y-39388443D01*
X136206243Y-39322754D01*
X136206241Y-39322753D01*
X136206240Y-39322753D01*
X136044957Y-39297208D01*
X135996287Y-39289500D01*
X135783713Y-39289500D01*
X135735042Y-39297208D01*
X135573760Y-39322753D01*
X135371585Y-39388444D01*
X135182179Y-39484951D01*
X135010215Y-39609889D01*
X134896673Y-39723431D01*
X134835350Y-39756915D01*
X134765658Y-39751931D01*
X134709725Y-39710059D01*
X134692810Y-39679082D01*
X134643797Y-39547671D01*
X134643793Y-39547664D01*
X134557547Y-39432455D01*
X134557544Y-39432452D01*
X134442335Y-39346206D01*
X134442328Y-39346202D01*
X134307482Y-39295908D01*
X134307483Y-39295908D01*
X134247883Y-39289501D01*
X134247881Y-39289500D01*
X134247873Y-39289500D01*
X134247864Y-39289500D01*
X132452129Y-39289500D01*
X132452123Y-39289501D01*
X132392516Y-39295908D01*
X132257671Y-39346202D01*
X132257664Y-39346206D01*
X132142455Y-39432452D01*
X132142452Y-39432455D01*
X132056206Y-39547664D01*
X132056202Y-39547671D01*
X132005908Y-39682517D01*
X131999501Y-39742116D01*
X131999500Y-39742135D01*
X130551323Y-39742135D01*
X130419464Y-39610276D01*
X130419459Y-39610272D01*
X130247557Y-39485379D01*
X130058217Y-39388904D01*
X129856128Y-39323242D01*
X129794000Y-39313401D01*
X129794000Y-40209297D01*
X129732993Y-40174075D01*
X129605826Y-40140000D01*
X129474174Y-40140000D01*
X129347007Y-40174075D01*
X129286000Y-40209297D01*
X129286000Y-39313401D01*
X129223872Y-39323242D01*
X129223869Y-39323242D01*
X129021782Y-39388904D01*
X128832442Y-39485379D01*
X128660540Y-39610271D01*
X128632569Y-39638243D01*
X128571245Y-39671727D01*
X128501554Y-39666741D01*
X128445621Y-39624869D01*
X128425813Y-39585156D01*
X128414372Y-39545774D01*
X128335905Y-39413093D01*
X128335903Y-39413091D01*
X128335900Y-39413087D01*
X128226912Y-39304099D01*
X128226904Y-39304093D01*
X128094224Y-39225627D01*
X128094221Y-39225626D01*
X127946203Y-39182622D01*
X127946197Y-39182621D01*
X127914566Y-39180132D01*
X127911613Y-39179900D01*
X127911612Y-39179900D01*
X126088398Y-39179900D01*
X126088376Y-39179901D01*
X126053799Y-39182622D01*
X125905778Y-39225626D01*
X125905775Y-39225627D01*
X125773095Y-39304093D01*
X125773087Y-39304099D01*
X125664099Y-39413087D01*
X125664093Y-39413095D01*
X125585627Y-39545775D01*
X125585626Y-39545778D01*
X125542622Y-39693796D01*
X125542621Y-39693802D01*
X125539900Y-39728381D01*
X125539900Y-39728394D01*
X125539901Y-41476100D01*
X125520216Y-41543139D01*
X125467413Y-41588894D01*
X125415901Y-41600100D01*
X125052960Y-41600100D01*
X124985921Y-41580415D01*
X124965279Y-41563781D01*
X124524312Y-41122814D01*
X124490827Y-41061491D01*
X124494062Y-40996815D01*
X124507246Y-40956243D01*
X124540500Y-40746287D01*
X124540500Y-40533713D01*
X124507246Y-40323757D01*
X124441557Y-40121588D01*
X124345051Y-39932184D01*
X124345049Y-39932181D01*
X124345048Y-39932179D01*
X124220109Y-39760213D01*
X124069786Y-39609890D01*
X123897820Y-39484951D01*
X123708414Y-39388444D01*
X123708413Y-39388443D01*
X123708412Y-39388443D01*
X123506243Y-39322754D01*
X123506241Y-39322753D01*
X123506240Y-39322753D01*
X123344957Y-39297208D01*
X123296287Y-39289500D01*
X123083713Y-39289500D01*
X123035042Y-39297208D01*
X122873760Y-39322753D01*
X122671585Y-39388444D01*
X122482179Y-39484951D01*
X122310213Y-39609890D01*
X122159890Y-39760213D01*
X122034949Y-39932182D01*
X122030484Y-39940946D01*
X121982509Y-39991742D01*
X121914688Y-40008536D01*
X121848553Y-39985998D01*
X121809516Y-39940946D01*
X121805050Y-39932182D01*
X121680109Y-39760213D01*
X121529786Y-39609890D01*
X121357820Y-39484951D01*
X121168414Y-39388444D01*
X121168413Y-39388443D01*
X121168412Y-39388443D01*
X120966243Y-39322754D01*
X120966241Y-39322753D01*
X120966240Y-39322753D01*
X120804957Y-39297208D01*
X120756287Y-39289500D01*
X120543713Y-39289500D01*
X120495042Y-39297208D01*
X120333760Y-39322753D01*
X120131585Y-39388444D01*
X119942179Y-39484951D01*
X119770213Y-39609890D01*
X119619890Y-39760213D01*
X119494949Y-39932182D01*
X119490484Y-39940946D01*
X119442509Y-39991742D01*
X119374688Y-40008536D01*
X119308553Y-39985998D01*
X119269516Y-39940946D01*
X119265050Y-39932182D01*
X119140109Y-39760213D01*
X118989786Y-39609890D01*
X118817820Y-39484951D01*
X118628414Y-39388444D01*
X118628413Y-39388443D01*
X118628412Y-39388443D01*
X118426243Y-39322754D01*
X118426241Y-39322753D01*
X118426240Y-39322753D01*
X118264957Y-39297208D01*
X118216287Y-39289500D01*
X118003713Y-39289500D01*
X117955042Y-39297208D01*
X117793760Y-39322753D01*
X117591585Y-39388444D01*
X117402179Y-39484951D01*
X117230215Y-39609889D01*
X117116673Y-39723431D01*
X117055350Y-39756915D01*
X116985658Y-39751931D01*
X116929725Y-39710059D01*
X116912810Y-39679082D01*
X116863797Y-39547671D01*
X116863793Y-39547664D01*
X116777547Y-39432455D01*
X116777544Y-39432452D01*
X116662335Y-39346206D01*
X116662328Y-39346202D01*
X116527482Y-39295908D01*
X116527483Y-39295908D01*
X116467883Y-39289501D01*
X116467881Y-39289500D01*
X116467873Y-39289500D01*
X116467864Y-39289500D01*
X114672129Y-39289500D01*
X114672123Y-39289501D01*
X114612516Y-39295908D01*
X114477671Y-39346202D01*
X114477664Y-39346206D01*
X114362455Y-39432452D01*
X114362452Y-39432455D01*
X114276206Y-39547664D01*
X114276202Y-39547671D01*
X114225908Y-39682517D01*
X114219501Y-39742116D01*
X114219500Y-39742135D01*
X114219500Y-41537870D01*
X114219501Y-41537876D01*
X114225908Y-41597483D01*
X114276202Y-41732328D01*
X114276206Y-41732335D01*
X114362452Y-41847544D01*
X114362455Y-41847547D01*
X114477664Y-41933793D01*
X114477671Y-41933797D01*
X114612517Y-41984091D01*
X114612516Y-41984091D01*
X114619444Y-41984835D01*
X114672127Y-41990500D01*
X115608639Y-41990499D01*
X115675678Y-42010183D01*
X115721433Y-42062987D01*
X115731377Y-42132146D01*
X115702352Y-42195702D01*
X115696320Y-42202180D01*
X112660302Y-45238200D01*
X112548201Y-45350300D01*
X112548199Y-45350303D01*
X112468933Y-45487597D01*
X112468933Y-45487598D01*
X112431992Y-45625463D01*
X112427900Y-45640733D01*
X112427900Y-49587628D01*
X112408215Y-49654667D01*
X112407002Y-49656519D01*
X112320609Y-49785814D01*
X112320602Y-49785827D01*
X112260264Y-49931498D01*
X112260261Y-49931510D01*
X112229500Y-50086153D01*
X112229500Y-50243846D01*
X112244113Y-50317309D01*
X112237886Y-50386900D01*
X112195023Y-50442077D01*
X112129133Y-50465322D01*
X112122496Y-50465500D01*
X108817042Y-50465500D01*
X108750003Y-50445815D01*
X108729361Y-50429181D01*
X107156418Y-48856238D01*
X107122933Y-48794915D01*
X107120099Y-48768557D01*
X107120099Y-47098398D01*
X107120098Y-47098376D01*
X107117378Y-47063801D01*
X107074372Y-46915774D01*
X106995905Y-46783093D01*
X106995903Y-46783091D01*
X106995900Y-46783087D01*
X106886912Y-46674099D01*
X106886904Y-46674093D01*
X106754224Y-46595627D01*
X106754221Y-46595626D01*
X106606203Y-46552622D01*
X106606197Y-46552621D01*
X106571618Y-46549900D01*
X106571613Y-46549900D01*
X104901442Y-46549900D01*
X104834403Y-46530215D01*
X104813761Y-46513581D01*
X104014652Y-45714471D01*
X104014648Y-45714468D01*
X103881448Y-45625466D01*
X103881435Y-45625459D01*
X103733435Y-45564156D01*
X103733425Y-45564153D01*
X103576305Y-45532900D01*
X103576303Y-45532900D01*
X93273697Y-45532900D01*
X93273695Y-45532900D01*
X93116574Y-45564153D01*
X93116564Y-45564156D01*
X92968564Y-45625459D01*
X92968551Y-45625466D01*
X92835351Y-45714468D01*
X92835347Y-45714471D01*
X92036237Y-46513581D01*
X91974914Y-46547066D01*
X91948556Y-46549900D01*
X90278398Y-46549900D01*
X90278376Y-46549901D01*
X90243799Y-46552622D01*
X90095778Y-46595626D01*
X90095775Y-46595627D01*
X89963095Y-46674093D01*
X89963087Y-46674099D01*
X89854099Y-46783087D01*
X89854093Y-46783095D01*
X89775627Y-46915775D01*
X89775626Y-46915778D01*
X89732622Y-47063796D01*
X89732621Y-47063802D01*
X89729900Y-47098381D01*
X89729900Y-48768557D01*
X89721255Y-48797997D01*
X89714732Y-48827984D01*
X89710977Y-48832999D01*
X89710215Y-48835596D01*
X89693581Y-48856238D01*
X89612181Y-48937638D01*
X89550858Y-48971123D01*
X89481166Y-48966139D01*
X89425233Y-48924267D01*
X89400816Y-48858803D01*
X89400500Y-48849957D01*
X89400500Y-41110204D01*
X91329900Y-41110204D01*
X91329900Y-42709795D01*
X91332748Y-42751801D01*
X91377898Y-42933352D01*
X91461021Y-43100953D01*
X91461022Y-43100954D01*
X91578231Y-43246769D01*
X91724046Y-43363978D01*
X91891649Y-43447102D01*
X92073202Y-43492252D01*
X92115202Y-43495100D01*
X92115204Y-43495100D01*
X93464796Y-43495100D01*
X93464798Y-43495100D01*
X93506798Y-43492252D01*
X93688351Y-43447102D01*
X93855954Y-43363978D01*
X94001769Y-43246769D01*
X94109068Y-43113283D01*
X94166411Y-43073364D01*
X94236233Y-43070784D01*
X94293396Y-43103289D01*
X94338809Y-43148702D01*
X94524741Y-43283790D01*
X94616373Y-43330479D01*
X94729511Y-43388126D01*
X94729513Y-43388126D01*
X94729516Y-43388128D01*
X94821945Y-43418160D01*
X94948091Y-43459148D01*
X95175083Y-43495100D01*
X95175088Y-43495100D01*
X95404917Y-43495100D01*
X95631908Y-43459148D01*
X95850484Y-43388128D01*
X96055259Y-43283790D01*
X96241191Y-43148702D01*
X96403702Y-42986191D01*
X96439684Y-42936665D01*
X96495011Y-42894002D01*
X96564624Y-42888023D01*
X96626420Y-42920628D01*
X96640308Y-42936655D01*
X96676298Y-42986191D01*
X96838809Y-43148702D01*
X97024741Y-43283790D01*
X97116373Y-43330479D01*
X97229511Y-43388126D01*
X97229513Y-43388126D01*
X97229516Y-43388128D01*
X97321945Y-43418160D01*
X97448091Y-43459148D01*
X97675083Y-43495100D01*
X97675088Y-43495100D01*
X97904917Y-43495100D01*
X98131908Y-43459148D01*
X98350484Y-43388128D01*
X98555259Y-43283790D01*
X98741191Y-43148702D01*
X98903702Y-42986191D01*
X98939684Y-42936665D01*
X98995011Y-42894002D01*
X99064624Y-42888023D01*
X99126420Y-42920628D01*
X99140308Y-42936655D01*
X99176298Y-42986191D01*
X99338809Y-43148702D01*
X99524741Y-43283790D01*
X99616373Y-43330479D01*
X99729511Y-43388126D01*
X99729513Y-43388126D01*
X99729516Y-43388128D01*
X99821945Y-43418160D01*
X99948091Y-43459148D01*
X100175083Y-43495100D01*
X100175088Y-43495100D01*
X100404917Y-43495100D01*
X100631908Y-43459148D01*
X100850484Y-43388128D01*
X101055259Y-43283790D01*
X101241191Y-43148702D01*
X101403702Y-42986191D01*
X101439684Y-42936665D01*
X101495011Y-42894002D01*
X101564624Y-42888023D01*
X101626420Y-42920628D01*
X101640308Y-42936655D01*
X101676298Y-42986191D01*
X101838809Y-43148702D01*
X102024741Y-43283790D01*
X102116373Y-43330479D01*
X102229511Y-43388126D01*
X102229513Y-43388126D01*
X102229516Y-43388128D01*
X102321945Y-43418160D01*
X102448091Y-43459148D01*
X102675083Y-43495100D01*
X102675088Y-43495100D01*
X102904917Y-43495100D01*
X103131908Y-43459148D01*
X103350484Y-43388128D01*
X103555259Y-43283790D01*
X103741191Y-43148702D01*
X103903702Y-42986191D01*
X103939684Y-42936665D01*
X103995011Y-42894002D01*
X104064624Y-42888023D01*
X104126420Y-42920628D01*
X104140308Y-42936655D01*
X104176298Y-42986191D01*
X104338809Y-43148702D01*
X104524741Y-43283790D01*
X104616373Y-43330479D01*
X104729511Y-43388126D01*
X104729513Y-43388126D01*
X104729516Y-43388128D01*
X104821945Y-43418160D01*
X104948091Y-43459148D01*
X105175083Y-43495100D01*
X105175088Y-43495100D01*
X105404917Y-43495100D01*
X105631908Y-43459148D01*
X105850484Y-43388128D01*
X106055259Y-43283790D01*
X106241191Y-43148702D01*
X106403702Y-42986191D01*
X106439684Y-42936665D01*
X106495011Y-42894002D01*
X106564624Y-42888023D01*
X106626420Y-42920628D01*
X106640308Y-42936655D01*
X106676298Y-42986191D01*
X106838809Y-43148702D01*
X107024741Y-43283790D01*
X107116373Y-43330479D01*
X107229511Y-43388126D01*
X107229513Y-43388126D01*
X107229516Y-43388128D01*
X107321945Y-43418160D01*
X107448091Y-43459148D01*
X107675083Y-43495100D01*
X107675088Y-43495100D01*
X107904917Y-43495100D01*
X108131908Y-43459148D01*
X108350484Y-43388128D01*
X108555259Y-43283790D01*
X108741191Y-43148702D01*
X108903702Y-42986191D01*
X108939684Y-42936665D01*
X108995011Y-42894002D01*
X109064624Y-42888023D01*
X109126420Y-42920628D01*
X109140308Y-42936655D01*
X109176298Y-42986191D01*
X109338809Y-43148702D01*
X109524741Y-43283790D01*
X109616373Y-43330479D01*
X109729511Y-43388126D01*
X109729513Y-43388126D01*
X109729516Y-43388128D01*
X109821945Y-43418160D01*
X109948091Y-43459148D01*
X110175083Y-43495100D01*
X110175088Y-43495100D01*
X110404917Y-43495100D01*
X110631908Y-43459148D01*
X110850484Y-43388128D01*
X111055259Y-43283790D01*
X111241191Y-43148702D01*
X111403702Y-42986191D01*
X111538790Y-42800259D01*
X111643128Y-42595484D01*
X111714148Y-42376908D01*
X111731626Y-42266557D01*
X111750100Y-42149917D01*
X111750100Y-41670082D01*
X111714148Y-41443091D01*
X111680344Y-41339056D01*
X111643128Y-41224516D01*
X111643126Y-41224513D01*
X111643126Y-41224511D01*
X111563480Y-41068198D01*
X111538790Y-41019741D01*
X111403702Y-40833809D01*
X111241191Y-40671298D01*
X111055259Y-40536210D01*
X111050358Y-40533713D01*
X110850488Y-40431873D01*
X110631908Y-40360851D01*
X110404917Y-40324900D01*
X110404912Y-40324900D01*
X110175088Y-40324900D01*
X110175083Y-40324900D01*
X109948091Y-40360851D01*
X109729511Y-40431873D01*
X109524740Y-40536210D01*
X109473786Y-40573231D01*
X109338809Y-40671298D01*
X109338807Y-40671300D01*
X109338806Y-40671300D01*
X109176300Y-40833806D01*
X109176298Y-40833809D01*
X109140316Y-40883333D01*
X109084988Y-40925997D01*
X109015375Y-40931976D01*
X108953580Y-40899370D01*
X108939686Y-40883336D01*
X108903702Y-40833809D01*
X108741191Y-40671298D01*
X108555259Y-40536210D01*
X108550358Y-40533713D01*
X108350488Y-40431873D01*
X108131908Y-40360851D01*
X107904917Y-40324900D01*
X107904912Y-40324900D01*
X107675088Y-40324900D01*
X107675083Y-40324900D01*
X107448091Y-40360851D01*
X107229511Y-40431873D01*
X107024740Y-40536210D01*
X106973786Y-40573231D01*
X106838809Y-40671298D01*
X106838807Y-40671300D01*
X106838806Y-40671300D01*
X106676300Y-40833806D01*
X106676298Y-40833809D01*
X106640316Y-40883333D01*
X106584988Y-40925997D01*
X106515375Y-40931976D01*
X106453580Y-40899370D01*
X106439686Y-40883336D01*
X106403702Y-40833809D01*
X106241191Y-40671298D01*
X106055259Y-40536210D01*
X106050358Y-40533713D01*
X105850488Y-40431873D01*
X105631908Y-40360851D01*
X105404917Y-40324900D01*
X105404912Y-40324900D01*
X105175088Y-40324900D01*
X105175083Y-40324900D01*
X104948091Y-40360851D01*
X104729511Y-40431873D01*
X104524740Y-40536210D01*
X104473786Y-40573231D01*
X104338809Y-40671298D01*
X104338807Y-40671300D01*
X104338806Y-40671300D01*
X104176300Y-40833806D01*
X104176298Y-40833809D01*
X104140316Y-40883333D01*
X104084988Y-40925997D01*
X104015375Y-40931976D01*
X103953580Y-40899370D01*
X103939686Y-40883336D01*
X103903702Y-40833809D01*
X103741191Y-40671298D01*
X103555259Y-40536210D01*
X103550358Y-40533713D01*
X103350488Y-40431873D01*
X103131908Y-40360851D01*
X102904917Y-40324900D01*
X102904912Y-40324900D01*
X102675088Y-40324900D01*
X102675083Y-40324900D01*
X102448091Y-40360851D01*
X102229511Y-40431873D01*
X102024740Y-40536210D01*
X101973786Y-40573231D01*
X101838809Y-40671298D01*
X101838807Y-40671300D01*
X101838806Y-40671300D01*
X101676300Y-40833806D01*
X101676298Y-40833809D01*
X101640316Y-40883333D01*
X101584988Y-40925997D01*
X101515375Y-40931976D01*
X101453580Y-40899370D01*
X101439686Y-40883336D01*
X101403702Y-40833809D01*
X101241191Y-40671298D01*
X101055259Y-40536210D01*
X101050358Y-40533713D01*
X100850488Y-40431873D01*
X100631908Y-40360851D01*
X100404917Y-40324900D01*
X100404912Y-40324900D01*
X100175088Y-40324900D01*
X100175083Y-40324900D01*
X99948091Y-40360851D01*
X99729511Y-40431873D01*
X99524740Y-40536210D01*
X99473786Y-40573231D01*
X99338809Y-40671298D01*
X99338807Y-40671300D01*
X99338806Y-40671300D01*
X99176300Y-40833806D01*
X99176298Y-40833809D01*
X99140316Y-40883333D01*
X99084988Y-40925997D01*
X99015375Y-40931976D01*
X98953580Y-40899370D01*
X98939686Y-40883336D01*
X98903702Y-40833809D01*
X98741191Y-40671298D01*
X98555259Y-40536210D01*
X98550358Y-40533713D01*
X98350488Y-40431873D01*
X98131908Y-40360851D01*
X97904917Y-40324900D01*
X97904912Y-40324900D01*
X97675088Y-40324900D01*
X97675083Y-40324900D01*
X97448091Y-40360851D01*
X97229511Y-40431873D01*
X97024740Y-40536210D01*
X96973786Y-40573231D01*
X96838809Y-40671298D01*
X96838807Y-40671300D01*
X96838806Y-40671300D01*
X96676300Y-40833806D01*
X96676298Y-40833809D01*
X96640316Y-40883333D01*
X96584988Y-40925997D01*
X96515375Y-40931976D01*
X96453580Y-40899370D01*
X96439686Y-40883336D01*
X96403702Y-40833809D01*
X96241191Y-40671298D01*
X96055259Y-40536210D01*
X96050358Y-40533713D01*
X95850488Y-40431873D01*
X95631908Y-40360851D01*
X95404917Y-40324900D01*
X95404912Y-40324900D01*
X95175088Y-40324900D01*
X95175083Y-40324900D01*
X94948091Y-40360851D01*
X94729511Y-40431873D01*
X94524740Y-40536210D01*
X94473786Y-40573231D01*
X94338809Y-40671298D01*
X94338807Y-40671300D01*
X94338805Y-40671301D01*
X94293394Y-40716712D01*
X94232071Y-40750196D01*
X94162379Y-40745211D01*
X94109070Y-40706719D01*
X94001769Y-40573231D01*
X94001767Y-40573229D01*
X94001766Y-40573228D01*
X93855953Y-40456021D01*
X93688352Y-40372898D01*
X93506801Y-40327748D01*
X93481598Y-40326039D01*
X93464798Y-40324900D01*
X92115202Y-40324900D01*
X92101202Y-40325849D01*
X92073198Y-40327748D01*
X91891647Y-40372898D01*
X91724046Y-40456021D01*
X91578231Y-40573230D01*
X91578230Y-40573231D01*
X91461021Y-40719046D01*
X91377898Y-40886647D01*
X91332748Y-41068198D01*
X91329900Y-41110204D01*
X89400500Y-41110204D01*
X89400500Y-38724500D01*
X89420185Y-38657461D01*
X89472989Y-38611706D01*
X89524500Y-38600500D01*
X144790500Y-38600500D01*
X144857539Y-38620185D01*
G37*
G04 #@! TD.AperFunction*
M02*
